<?xml version="1.0" standalone="yes"?>

<svg version="1.1" viewBox="0.0 0.0 960.0 540.0" fill="none" stroke="none" stroke-linecap="square" stroke-miterlimit="10" xmlns="http://www.w3.org/2000/svg" xmlns:xlink="http://www.w3.org/1999/xlink"><clipPath id="g22470ae7f9_0_0.0"><path d="m0 0l960.0 0l0 540.0l-960.0 0l0 -540.0z" clip-rule="nonzero"></path></clipPath><g clip-path="url(#g22470ae7f9_0_0.0)"><path fill="#ffffff" d="m0 0l960.0 0l0 540.0l-960.0 0z" fill-rule="evenodd"></path><path fill="#000000" fill-opacity="0.0" d="m450.80054 99.93087l130.70868 0l0 37.889763l-130.70868 0z" fill-rule="evenodd"></path><path fill="#000000" d="m523.2045 121.618996l1.453125 0.171875q-0.34375 1.28125 -1.28125 1.984375q-0.921875 0.703125 -2.359375 0.703125q-1.828125 0 -2.890625 -1.125q-1.0625 -1.125 -1.0625 -3.140625q0 -2.09375 1.078125 -3.25q1.078125 -1.15625 2.796875 -1.15625q1.65625 0 2.703125 1.140625q1.0625 1.125 1.0625 3.171875q0 0.125 0 0.375l-6.1875 0q0.078125 1.375 0.765625 2.109375q0.703125 0.71875 1.734375 0.71875q0.78125 0 1.328125 -0.40625q0.546875 -0.40625 0.859375 -1.296875zm-4.609375 -2.28125l4.625 0q-0.09375 -1.046875 -0.53125 -1.5625q-0.671875 -0.8125 -1.734375 -0.8125q-0.96875 0 -1.640625 0.65625q-0.65625 0.640625 -0.71875 1.71875zm6.8984375 4.953125l3.03125 -4.3125l-2.8125 -3.984375l1.765625 0l1.265625 1.9375q0.359375 0.5625 0.578125 0.9375q0.34375 -0.515625 0.640625 -0.921875l1.390625 -1.953125l1.6875 0l-2.875 3.90625l3.09375 4.390625l-1.734375 0l-1.703125 -2.578125l-0.453125 -0.703125l-2.171875 3.28125l-1.703125 0zm14.609375 -2.671875l1.453125 0.171875q-0.34375 1.28125 -1.28125 1.984375q-0.921875 0.703125 -2.359375 0.703125q-1.828125 0 -2.890625 -1.125q-1.0625 -1.125 -1.0625 -3.140625q0 -2.09375 1.078125 -3.25q1.078125 -1.15625 2.796875 -1.15625q1.65625 0 2.703125 1.140625q1.0625 1.125 1.0625 3.171875q0 0.125 0 0.375l-6.1875 0q0.078125 1.375 0.765625 2.109375q0.703125 0.71875 1.734375 0.71875q0.78125 0 1.328125 -0.40625q0.546875 -0.40625 0.859375 -1.296875zm-4.609375 -2.28125l4.625 0q-0.09375 -1.046875 -0.53125 -1.5625q-0.671875 -0.8125 -1.734375 -0.8125q-0.96875 0 -1.640625 0.65625q-0.65625 0.640625 -0.71875 1.71875zm13.2421875 1.90625l1.390625 0.1875q-0.234375 1.421875 -1.171875 2.234375q-0.921875 0.8125 -2.28125 0.8125q-1.703125 0 -2.75 -1.109375q-1.03125 -1.125 -1.03125 -3.203125q0 -1.34375 0.4375 -2.34375q0.453125 -1.015625 1.359375 -1.515625q0.921875 -0.5 1.984375 -0.5q1.359375 0 2.21875 0.6875q0.859375 0.671875 1.09375 1.9375l-1.359375 0.203125q-0.203125 -0.828125 -0.703125 -1.25q-0.484375 -0.421875 -1.1875 -0.421875q-1.0625 0 -1.734375 0.765625q-0.65625 0.75 -0.65625 2.40625q0 1.671875 0.640625 2.4375q0.640625 0.75 1.671875 0.75q0.828125 0 1.375 -0.5q0.5625 -0.515625 0.703125 -1.578125zm8.03125 3.046875l0 -1.21875q-0.96875 1.40625 -2.640625 1.40625q-0.734375 0 -1.375 -0.28125q-0.625 -0.28125 -0.9375 -0.703125q-0.3125 -0.4375 -0.4375 -1.046875q-0.078125 -0.421875 -0.078125 -1.3125l0 -5.140625l1.40625 0l0 4.59375q0 1.109375 0.078125 1.484375q0.140625 0.5625 0.5625 0.875q0.4375 0.3125 1.0625 0.3125q0.640625 0 1.1875 -0.3125q0.5625 -0.328125 0.78125 -0.890625q0.234375 -0.5625 0.234375 -1.625l0 -4.4375l1.40625 0l0 8.296875l-1.25 0zm6.5234375 -1.265625l0.203125 1.25q-0.59375 0.125 -1.0625 0.125q-0.765625 0 -1.1875 -0.234375q-0.421875 -0.25 -0.59375 -0.640625q-0.171875 -0.40625 -0.171875 -1.671875l0 -4.765625l-1.03125 0l0 -1.09375l1.03125 0l0 -2.0625l1.40625 -0.84375l0 2.90625l1.40625 0l0 1.09375l-1.40625 0l0 4.84375q0 0.609375 0.0625 0.78125q0.078125 0.171875 0.25 0.28125q0.171875 0.09375 0.484375 0.09375q0.234375 0 0.609375 -0.0625zm7.0546875 -1.40625l1.453125 0.171875q-0.34375 1.28125 -1.28125 1.984375q-0.921875 0.703125 -2.359375 0.703125q-1.828125 0 -2.890625 -1.125q-1.0625 -1.125 -1.0625 -3.140625q0 -2.09375 1.078125 -3.25q1.078125 -1.15625 2.796875 -1.15625q1.65625 0 2.703125 1.140625q1.0625 1.125 1.0625 3.171875q0 0.125 0 0.375l-6.1875 0q0.078125 1.375 0.765625 2.109375q0.703125 0.71875 1.734375 0.71875q0.78125 0 1.328125 -0.40625q0.546875 -0.40625 0.859375 -1.296875zm-4.609375 -2.28125l4.625 0q-0.09375 -1.046875 -0.53125 -1.5625q-0.671875 -0.8125 -1.734375 -0.8125q-0.96875 0 -1.640625 0.65625q-0.65625 0.640625 -0.71875 1.71875z" fill-rule="nonzero"></path><path fill="#000000" fill-opacity="0.0" d="m450.80054 297.49213l130.70868 0l0 37.88977l-130.70868 0z" fill-rule="evenodd"></path><path fill="#000000" d="m523.2045 319.18024l1.453125 0.171875q-0.34375 1.28125 -1.28125 1.984375q-0.921875 0.703125 -2.359375 0.703125q-1.828125 0 -2.890625 -1.125q-1.0625 -1.125 -1.0625 -3.140625q0 -2.09375 1.078125 -3.25q1.078125 -1.15625 2.796875 -1.15625q1.65625 0 2.703125 1.140625q1.0625 1.125 1.0625 3.171875q0 0.125 0 0.375l-6.1875 0q0.078125 1.375 0.765625 2.109375q0.703125 0.71875 1.734375 0.71875q0.78125 0 1.328125 -0.40625q0.546875 -0.40625 0.859375 -1.296875zm-4.609375 -2.28125l4.625 0q-0.09375 -1.046875 -0.53125 -1.5625q-0.671875 -0.8125 -1.734375 -0.8125q-0.96875 0 -1.640625 0.65625q-0.65625 0.640625 -0.71875 1.71875zm6.8984375 4.953125l3.03125 -4.3125l-2.8125 -3.984375l1.765625 0l1.265625 1.9375q0.359375 0.5625 0.578125 0.9375q0.34375 -0.515625 0.640625 -0.921875l1.390625 -1.953125l1.6875 0l-2.875 3.90625l3.09375 4.390625l-1.734375 0l-1.703125 -2.578125l-0.453125 -0.703125l-2.171875 3.28125l-1.703125 0zm14.609375 -2.671875l1.453125 0.171875q-0.34375 1.28125 -1.28125 1.984375q-0.921875 0.703125 -2.359375 0.703125q-1.828125 0 -2.890625 -1.125q-1.0625 -1.125 -1.0625 -3.140625q0 -2.09375 1.078125 -3.25q1.078125 -1.15625 2.796875 -1.15625q1.65625 0 2.703125 1.140625q1.0625 1.125 1.0625 3.171875q0 0.125 0 0.375l-6.1875 0q0.078125 1.375 0.765625 2.109375q0.703125 0.71875 1.734375 0.71875q0.78125 0 1.328125 -0.40625q0.546875 -0.40625 0.859375 -1.296875zm-4.609375 -2.28125l4.625 0q-0.09375 -1.046875 -0.53125 -1.5625q-0.671875 -0.8125 -1.734375 -0.8125q-0.96875 0 -1.640625 0.65625q-0.65625 0.640625 -0.71875 1.71875zm13.2421875 1.90625l1.390625 0.1875q-0.234375 1.421875 -1.171875 2.234375q-0.921875 0.8125 -2.28125 0.8125q-1.703125 0 -2.75 -1.109375q-1.03125 -1.125 -1.03125 -3.203125q0 -1.34375 0.4375 -2.34375q0.453125 -1.015625 1.359375 -1.515625q0.921875 -0.5 1.984375 -0.5q1.359375 0 2.21875 0.6875q0.859375 0.671875 1.09375 1.9375l-1.359375 0.203125q-0.203125 -0.828125 -0.703125 -1.25q-0.484375 -0.421875 -1.1875 -0.421875q-1.0625 0 -1.734375 0.765625q-0.65625 0.75 -0.65625 2.40625q0 1.671875 0.640625 2.4375q0.640625 0.75 1.671875 0.75q0.828125 0 1.375 -0.5q0.5625 -0.515625 0.703125 -1.578125zm8.03125 3.046875l0 -1.21875q-0.96875 1.40625 -2.640625 1.40625q-0.734375 0 -1.375 -0.28125q-0.625 -0.28125 -0.9375 -0.703125q-0.3125 -0.4375 -0.4375 -1.046875q-0.078125 -0.421875 -0.078125 -1.3125l0 -5.140625l1.40625 0l0 4.59375q0 1.109375 0.078125 1.484375q0.140625 0.5625 0.5625 0.875q0.4375 0.3125 1.0625 0.3125q0.640625 0 1.1875 -0.3125q0.5625 -0.328125 0.78125 -0.890625q0.234375 -0.5625 0.234375 -1.625l0 -4.4375l1.40625 0l0 8.296875l-1.25 0zm6.5234375 -1.265625l0.203125 1.25q-0.59375 0.125 -1.0625 0.125q-0.765625 0 -1.1875 -0.234375q-0.421875 -0.25 -0.59375 -0.640625q-0.171875 -0.40625 -0.171875 -1.671875l0 -4.765625l-1.03125 0l0 -1.09375l1.03125 0l0 -2.0625l1.40625 -0.84375l0 2.90625l1.40625 0l0 1.09375l-1.40625 0l0 4.84375q0 0.609375 0.0625 0.78125q0.078125 0.171875 0.25 0.28125q0.171875 0.09375 0.484375 0.09375q0.234375 0 0.609375 -0.0625zm7.0546875 -1.40625l1.453125 0.171875q-0.34375 1.28125 -1.28125 1.984375q-0.921875 0.703125 -2.359375 0.703125q-1.828125 0 -2.890625 -1.125q-1.0625 -1.125 -1.0625 -3.140625q0 -2.09375 1.078125 -3.25q1.078125 -1.15625 2.796875 -1.15625q1.65625 0 2.703125 1.140625q1.0625 1.125 1.0625 3.171875q0 0.125 0 0.375l-6.1875 0q0.078125 1.375 0.765625 2.109375q0.703125 0.71875 1.734375 0.71875q0.78125 0 1.328125 -0.40625q0.546875 -0.40625 0.859375 -1.296875zm-4.609375 -2.28125l4.625 0q-0.09375 -1.046875 -0.53125 -1.5625q-0.671875 -0.8125 -1.734375 -0.8125q-0.96875 0 -1.640625 0.65625q-0.65625 0.640625 -0.71875 1.71875z" fill-rule="nonzero"></path><path fill="#000000" fill-opacity="0.0" d="m182.37534 261.82285l130.70865 0l0 37.88974l-130.70865 0z" fill-rule="evenodd"></path><path fill="#000000" d="m241.71681 286.87033l1.375 0.203125q0.078125 0.640625 0.46875 0.921875q0.53125 0.390625 1.4375 0.390625q0.96875 0 1.5 -0.390625q0.53125 -0.390625 0.71875 -1.09375q0.109375 -0.421875 0.109375 -1.8125q-0.921875 1.09375 -2.296875 1.09375q-1.71875 0 -2.65625 -1.234375q-0.9375 -1.234375 -0.9375 -2.96875q0 -1.1875 0.421875 -2.1875q0.4375 -1.0 1.25 -1.546875q0.828125 -0.546875 1.921875 -0.546875q1.46875 0 2.421875 1.1875l0 -1.0l1.296875 0l0 7.171875q0 1.9375 -0.390625 2.75q-0.390625 0.8125 -1.25 1.28125q-0.859375 0.46875 -2.109375 0.46875q-1.484375 0 -2.40625 -0.671875q-0.90625 -0.671875 -0.875 -2.015625zm1.171875 -4.984375q0 1.625 0.640625 2.375q0.65625 0.75 1.625 0.75q0.96875 0 1.625 -0.734375q0.65625 -0.75 0.65625 -2.34375q0 -1.53125 -0.671875 -2.296875q-0.671875 -0.78125 -1.625 -0.78125q-0.9375 0 -1.59375 0.765625q-0.65625 0.765625 -0.65625 2.265625zm13.664047 1.625l1.453125 0.171875q-0.34375 1.28125 -1.28125 1.984375q-0.92185974 0.703125 -2.3593597 0.703125q-1.828125 0 -2.890625 -1.125q-1.0625 -1.125 -1.0625 -3.140625q0 -2.09375 1.078125 -3.25q1.078125 -1.15625 2.796875 -1.15625q1.65625 0 2.7031097 1.140625q1.0625 1.125 1.0625 3.171875q0 0.125 0 0.375l-6.1874847 0q0.078125 1.375 0.765625 2.109375q0.703125 0.71875 1.734375 0.71875q0.78125 0 1.328125 -0.40625q0.54685974 -0.40625 0.85935974 -1.296875zm-4.6093597 -2.28125l4.6249847 0q-0.09375 -1.046875 -0.53125 -1.5625q-0.67185974 -0.8125 -1.7343597 -0.8125q-0.96875 0 -1.640625 0.65625q-0.65625 0.640625 -0.71875 1.71875zm7.8359222 4.953125l0 -8.296875l1.265625 0l0 1.171875q0.90625 -1.359375 2.640625 -1.359375q0.75 0 1.375 0.265625q0.625 0.265625 0.9375 0.703125q0.3125 0.4375 0.4375 1.046875q0.078125 0.390625 0.078125 1.359375l0 5.109375l-1.40625 0l0 -5.046875q0 -0.859375 -0.171875 -1.28125q-0.15625 -0.4375 -0.578125 -0.6875q-0.40625 -0.25 -0.96875 -0.25q-0.90625 0 -1.5625 0.578125q-0.640625 0.5625 -0.640625 2.15625l0 4.53125l-1.40625 0zm14.5703125 -2.671875l1.453125 0.171875q-0.34375 1.28125 -1.28125 1.984375q-0.921875 0.703125 -2.359375 0.703125q-1.828125 0 -2.890625 -1.125q-1.0625 -1.125 -1.0625 -3.140625q0 -2.09375 1.078125 -3.25q1.078125 -1.15625 2.796875 -1.15625q1.65625 0 2.703125 1.140625q1.0625 1.125 1.0625 3.171875q0 0.125 0 0.375l-6.1875 0q0.078125 1.375 0.765625 2.109375q0.703125 0.71875 1.734375 0.71875q0.78125 0 1.328125 -0.40625q0.546875 -0.40625 0.859375 -1.296875zm-4.609375 -2.28125l4.625 0q-0.09375 -1.046875 -0.53125 -1.5625q-0.671875 -0.8125 -1.734375 -0.8125q-0.96875 0 -1.640625 0.65625q-0.65625 0.640625 -0.71875 1.71875zm7.8203125 4.953125l0 -8.296875l1.265625 0l0 1.25q0.484375 -0.875 0.890625 -1.15625q0.40625 -0.28125 0.90625 -0.28125q0.703125 0 1.4375 0.453125l-0.484375 1.296875q-0.515625 -0.296875 -1.03125 -0.296875q-0.453125 0 -0.828125 0.28125q-0.359375 0.265625 -0.515625 0.765625q-0.234375 0.75 -0.234375 1.640625l0 4.34375l-1.40625 0zm10.75 -1.03125q-0.78125 0.671875 -1.5 0.953125q-0.71875 0.265625 -1.546875 0.265625q-1.375 0 -2.109375 -0.671875q-0.734375 -0.671875 -0.734375 -1.703125q0 -0.609375 0.28125 -1.109375q0.28125 -0.515625 0.71875 -0.8125q0.453125 -0.3125 1.015625 -0.46875q0.421875 -0.109375 1.25 -0.203125q1.703125 -0.203125 2.515625 -0.484375q0 -0.296875 0 -0.375q0 -0.859375 -0.390625 -1.203125q-0.546875 -0.484375 -1.609375 -0.484375q-0.984375 0 -1.46875 0.359375q-0.46875 0.34375 -0.6875 1.21875l-1.375 -0.1875q0.1875 -0.875 0.609375 -1.421875q0.4375 -0.546875 1.25 -0.828125q0.8125 -0.296875 1.875 -0.296875q1.0625 0 1.71875 0.25q0.671875 0.25 0.984375 0.625q0.3125 0.375 0.4375 0.953125q0.078125 0.359375 0.078125 1.296875l0 1.875q0 1.96875 0.078125 2.484375q0.09375 0.515625 0.359375 1.0l-1.46875 0q-0.21875 -0.4375 -0.28125 -1.03125zm-0.109375 -3.140625q-0.765625 0.3125 -2.296875 0.53125q-0.875 0.125 -1.234375 0.28125q-0.359375 0.15625 -0.5625 0.46875q-0.1875 0.296875 -0.1875 0.65625q0 0.5625 0.421875 0.9375q0.4375 0.375 1.25 0.375q0.8125 0 1.4375 -0.34375q0.640625 -0.359375 0.9375 -0.984375q0.234375 -0.46875 0.234375 -1.40625l0 -0.515625zm6.6640625 2.90625l0.203125 1.25q-0.59375 0.125 -1.0625 0.125q-0.765625 0 -1.1875 -0.234375q-0.421875 -0.25 -0.59375 -0.640625q-0.171875 -0.40625 -0.171875 -1.671875l0 -4.765625l-1.03125 0l0 -1.09375l1.03125 0l0 -2.0625l1.40625 -0.84375l0 2.90625l1.40625 0l0 1.09375l-1.40625 0l0 4.84375q0 0.609375 0.0625 0.78125q0.078125 0.171875 0.25 0.28125q0.171875 0.09375 0.484375 0.09375q0.234375 0 0.609375 -0.0625zm7.0546875 -1.40625l1.453125 0.171875q-0.34375 1.28125 -1.28125 1.984375q-0.921875 0.703125 -2.359375 0.703125q-1.828125 0 -2.890625 -1.125q-1.0625 -1.125 -1.0625 -3.140625q0 -2.09375 1.078125 -3.25q1.078125 -1.15625 2.796875 -1.15625q1.65625 0 2.703125 1.140625q1.0625 1.125 1.0625 3.171875q0 0.125 0 0.375l-6.1875 0q0.078125 1.375 0.765625 2.109375q0.703125 0.71875 1.734375 0.71875q0.78125 0 1.328125 -0.40625q0.546875 -0.40625 0.859375 -1.296875zm-4.609375 -2.28125l4.625 0q-0.09375 -1.046875 -0.53125 -1.5625q-0.671875 -0.8125 -1.734375 -0.8125q-0.96875 0 -1.640625 0.65625q-0.65625 0.640625 -0.71875 1.71875z" fill-rule="nonzero"></path><path fill="#eeeeee" d="m55.02361 119.544785l0 0c0 -5.0474854 4.0918007 -9.13929 9.139294 -9.13929l156.39857 0c2.4239044 0 4.7485046 0.9628906 6.4624634 2.6768417c1.7139435 1.7139435 2.676834 4.038559 2.676834 6.462448l0 36.55606c0 5.0475006 -4.091797 9.1392975 -9.1392975 9.1392975l-156.39857 0c-5.047493 0 -9.139294 -4.091797 -9.139294 -9.1392975z" fill-rule="evenodd"></path><path stroke="#595959" stroke-width="1.0" stroke-linejoin="round" stroke-linecap="butt" stroke-dasharray="4.0,3.0" d="m55.02361 119.544785l0 0c0 -5.0474854 4.0918007 -9.13929 9.139294 -9.13929l156.39857 0c2.4239044 0 4.7485046 0.9628906 6.4624634 2.6768417c1.7139435 1.7139435 2.676834 4.038559 2.676834 6.462448l0 36.55606c0 5.0475006 -4.091797 9.1392975 -9.1392975 9.1392975l-156.39857 0c-5.047493 0 -9.139294 -4.091797 -9.139294 -9.1392975z" fill-rule="evenodd"></path><path fill="#000000" d="m93.036385 144.74281l0 -13.59375l5.125 0q1.359375 0 2.078125 0.125q1.0 0.171875 1.671875 0.640625q0.671875 0.46875 1.078125 1.3125q0.421875 0.84375 0.421875 1.84375q0 1.734375 -1.109375 2.9375q-1.09375 1.203125 -3.984375 1.203125l-3.484375 0l0 5.53125l-1.796875 0zm1.796875 -7.140625l3.515625 0q1.75 0 2.46875 -0.640625q0.734375 -0.65625 0.734375 -1.828125q0 -0.859375 -0.4375 -1.46875q-0.421875 -0.609375 -1.125 -0.796875q-0.453125 -0.125 -1.671875 -0.125l-3.484375 0l0 4.859375zm10.412323 7.140625l0 -9.859375l1.5 0l0 1.5q0.578125 -1.046875 1.0625 -1.375q0.484375 -0.34375 1.078125 -0.34375q0.84375 0 1.71875 0.546875l-0.578125 1.546875q-0.609375 -0.359375 -1.234375 -0.359375q-0.546875 0 -0.984375 0.328125q-0.421875 0.328125 -0.609375 0.90625q-0.28125 0.890625 -0.28125 1.953125l0 5.15625l-1.671875 0zm5.603302 -4.921875q0 -2.734375 1.53125 -4.0625q1.265625 -1.09375 3.09375 -1.09375q2.03125 0 3.3125 1.34375q1.296875 1.328125 1.296875 3.671875q0 1.90625 -0.578125 3.0q-0.5625 1.078125 -1.65625 1.6875q-1.078125 0.59375 -2.375 0.59375q-2.0625 0 -3.34375 -1.328125q-1.28125 -1.328125 -1.28125 -3.8125zm1.71875 0q0 1.890625 0.828125 2.828125q0.828125 0.9375 2.078125 0.9375q1.25 0 2.0625 -0.9375q0.828125 -0.953125 0.828125 -2.890625q0 -1.828125 -0.828125 -2.765625q-0.828125 -0.9375 -2.0625 -0.9375q-1.25 0 -2.078125 0.9375q-0.828125 0.9375 -0.828125 2.828125zm8.985092 5.734375l1.609375 0.25q0.109375 0.75 0.578125 1.09375q0.609375 0.453125 1.6875 0.453125q1.171875 0 1.796875 -0.46875q0.625 -0.453125 0.8593674 -1.28125q0.125 -0.515625 0.109375 -2.15625q-1.0937424 1.296875 -2.7187424 1.296875q-2.03125 0 -3.15625 -1.46875q-1.109375 -1.46875 -1.109375 -3.515625q0 -1.40625 0.515625 -2.59375q0.515625 -1.203125 1.484375 -1.84375q0.96875 -0.65625 2.265625 -0.65625q1.75 0 2.8749924 1.40625l0 -1.1875l1.546875 0l0 8.515625q0 2.3125 -0.46875 3.265625q-0.46875 0.96875 -1.4843674 1.515625q-1.015625 0.5625 -2.5 0.5625q-1.765625 0 -2.859375 -0.796875q-1.078125 -0.796875 -1.03125 -2.390625zm1.375 -5.921875q0 1.953125 0.765625 2.84375q0.78125 0.890625 1.9375 0.890625q1.140625 0 1.921875 -0.890625q0.7812424 -0.890625 0.7812424 -2.78125q0 -1.8125 -0.8124924 -2.71875q-0.796875 -0.921875 -1.921875 -0.921875q-1.109375 0 -1.890625 0.90625q-0.78125 0.890625 -0.78125 2.671875zm9.28196 5.109375l0 -9.859375l1.5 0l0 1.5q0.578125 -1.046875 1.0625 -1.375q0.484375 -0.34375 1.078125 -0.34375q0.84375 0 1.71875 0.546875l-0.578125 1.546875q-0.609375 -0.359375 -1.234375 -0.359375q-0.546875 0 -0.984375 0.328125q-0.421875 0.328125 -0.609375 0.90625q-0.28125 0.890625 -0.28125 1.953125l0 5.15625l-1.671875 0zm12.665802 -1.21875q-0.9375 0.796875 -1.796875 1.125q-0.859375 0.3125 -1.84375 0.3125q-1.609375 0 -2.484375 -0.78125q-0.875 -0.796875 -0.875 -2.03125q0 -0.734375 0.328125 -1.328125q0.328125 -0.59375 0.859375 -0.953125q0.53125 -0.359375 1.203125 -0.546875q0.5 -0.140625 1.484375 -0.25q2.03125 -0.25 2.984375 -0.578125q0 -0.34375 0 -0.4375q0 -1.015625 -0.46875 -1.4375q-0.640625 -0.5625 -1.90625 -0.5625q-1.171875 0 -1.734375 0.40625q-0.5625 0.40625 -0.828125 1.46875l-1.640625 -0.234375q0.234375 -1.046875 0.734375 -1.6875q0.515625 -0.640625 1.46875 -0.984375q0.96875 -0.359375 2.25 -0.359375q1.265625 0 2.046875 0.296875q0.78125 0.296875 1.15625 0.75q0.375 0.453125 0.515625 1.140625q0.09375 0.421875 0.09375 1.53125l0 2.234375q0 2.328125 0.09375 2.953125q0.109375 0.609375 0.4375 1.171875l-1.75 0q-0.265625 -0.515625 -0.328125 -1.21875zm-0.140625 -3.71875q-0.90625 0.359375 -2.734375 0.625q-1.03125 0.140625 -1.453125 0.328125q-0.421875 0.1875 -0.65625 0.546875q-0.234375 0.359375 -0.234375 0.796875q0 0.671875 0.5 1.125q0.515625 0.4375 1.484375 0.4375q0.96875 0 1.71875 -0.421875q0.75 -0.4375 1.109375 -1.15625q0.265625 -0.578125 0.265625 -1.671875l0 -0.609375zm4.078842 4.9375l0 -9.859375l1.5 0l0 1.390625q0.453125 -0.71875 1.21875 -1.15625q0.78125 -0.453125 1.765625 -0.453125q1.09375 0 1.796875 0.453125q0.703125 0.453125 0.984375 1.28125q1.171875 -1.734375 3.046875 -1.734375q1.46875 0 2.25 0.8125q0.796875 0.8125 0.796875 2.5l0 6.765625l-1.671875 0l0 -6.203125q0 -1.0 -0.15625 -1.4375q-0.15625 -0.453125 -0.59375 -0.71875q-0.421875 -0.265625 -1.0 -0.265625q-1.03125 0 -1.71875 0.6875q-0.6875 0.6875 -0.6875 2.21875l0 5.71875l-1.671875 0l0 -6.40625q0 -1.109375 -0.40625 -1.65625q-0.40625 -0.5625 -1.34375 -0.5625q-0.703125 0 -1.3125 0.375q-0.59375 0.359375 -0.859375 1.078125q-0.265625 0.71875 -0.265625 2.0625l0 5.109375l-1.671875 0zm23.911606 4.0q-1.375 -1.75 -2.328125 -4.078125q-0.953125 -2.34375 -0.953125 -4.84375q0 -2.21875 0.703125 -4.234375q0.84375 -2.34375 2.578125 -4.671875l1.203125 0q-1.125 1.921875 -1.484375 2.75q-0.5625 1.28125 -0.890625 2.671875q-0.40625 1.734375 -0.40625 3.484375q0 4.46875 2.78125 8.921875l-1.203125 0z" fill-rule="nonzero"></path><path fill="#000000" d="m175.31299 144.74281l2.859375 -13.59375l5.671875 0q1.46875 0 2.203125 0.34375q0.75 0.328125 1.21875 1.15625q0.484375 0.8125 0.484375 1.828125q0 0.84375 -0.34375 1.71875q-0.328125 0.875 -0.859375 1.4375q-0.53125 0.5625 -1.0625 0.859375q-0.53125 0.28125 -1.15625 0.421875q-1.296875 0.3125 -2.640625 0.3125l-3.40625 0l-1.140625 5.515625l-1.828125 0zm3.296875 -7.0625l3.0 0q1.734375 0 2.546875 -0.375q0.828125 -0.375 1.3125 -1.140625q0.5 -0.78125 0.5 -1.640625q0 -0.65625 -0.265625 -1.078125q-0.25 -0.4375 -0.734375 -0.625q-0.46875 -0.203125 -1.8125 -0.203125l-3.484375 0l-1.0625 5.0625z" fill-rule="nonzero"></path><path fill="#000000" d="m189.28781 148.74281l-1.1875 0q2.765625 -4.453125 2.765625 -8.921875q0 -1.734375 -0.390625 -3.453125q-0.328125 -1.390625 -0.890625 -2.671875q-0.359375 -0.84375 -1.484375 -2.78125l1.1875 0q1.75 2.328125 2.578125 4.671875q0.71875 2.015625 0.71875 4.234375q0 2.5 -0.96875 4.84375q-0.953125 2.328125 -2.328125 4.078125z" fill-rule="nonzero"></path><path fill="#eeeeee" d="m67.637794 266.04385l149.44882 0l0 67.33856l-149.44882 0z" fill-rule="evenodd"></path><path stroke="#595959" stroke-width="1.0" stroke-linejoin="round" stroke-linecap="butt" d="m67.637794 266.04385l149.44882 0l0 67.33856l-149.44882 0z" fill-rule="evenodd"></path><path fill="#000000" d="m107.990906 295.63315l0 -13.59375l2.71875 0l3.21875 9.625q0.4375 1.34375 0.640625 2.015625q0.234375 -0.75 0.734375 -2.1875l3.25 -9.453125l2.421875 0l0 13.59375l-1.734375 0l0 -11.390625l-3.953125 11.390625l-1.625 0l-3.9375 -11.578125l0 11.578125l-1.734375 0zm21.837677 0l0 -1.453125q-1.140625 1.671875 -3.125 1.671875q-0.859375 0 -1.625 -0.328125q-0.75 -0.34375 -1.125 -0.84375q-0.359375 -0.5 -0.515625 -1.234375q-0.09375 -0.5 -0.09375 -1.5625l0 -6.109375l1.671875 0l0 5.46875q0 1.3125 0.09375 1.765625q0.15625 0.65625 0.671875 1.03125q0.515625 0.375 1.265625 0.375q0.75 0 1.40625 -0.375q0.65625 -0.390625 0.921875 -1.046875q0.28125 -0.671875 0.28125 -1.9375l0 -5.28125l1.671875 0l0 9.859375l-1.5 0zm7.578842 -1.5l0.234375 1.484375q-0.703125 0.140625 -1.265625 0.140625q-0.90625 0 -1.40625 -0.28125q-0.5 -0.296875 -0.703125 -0.75q-0.203125 -0.46875 -0.203125 -1.984375l0 -5.65625l-1.234375 0l0 -1.3125l1.234375 0l0 -2.4375l1.65625 -1.0l0 3.4375l1.6875 0l0 1.3125l-1.6875 0l0 5.75q0 0.71875 0.078125 0.921875q0.09375 0.203125 0.296875 0.328125q0.203125 0.125 0.578125 0.125q0.265625 0 0.734375 -0.078125zm7.964554 0.28125q-0.9375 0.796875 -1.796875 1.125q-0.859375 0.3125 -1.84375 0.3125q-1.609375 0 -2.484375 -0.78125q-0.875 -0.796875 -0.875 -2.03125q0 -0.734375 0.328125 -1.328125q0.328125 -0.59375 0.859375 -0.953125q0.53125 -0.359375 1.203125 -0.546875q0.5 -0.140625 1.484375 -0.25q2.03125 -0.25 2.984375 -0.578125q0 -0.34375 0 -0.4375q0 -1.015625 -0.46875 -1.4375q-0.640625 -0.5625 -1.90625 -0.5625q-1.171875 0 -1.734375 0.40625q-0.5625 0.40625 -0.828125 1.46875l-1.640625 -0.234375q0.234375 -1.046875 0.734375 -1.6875q0.515625 -0.640625 1.46875 -0.984375q0.96875 -0.359375 2.25 -0.359375q1.265625 0 2.046875 0.296875q0.78125 0.296875 1.15625 0.75q0.375 0.453125 0.515625 1.140625q0.09375 0.421875 0.09375 1.53125l0 2.234375q0 2.328125 0.09375 2.953125q0.109375 0.609375 0.4375 1.171875l-1.75 0q-0.265625 -0.515625 -0.328125 -1.21875zm-0.140625 -3.71875q-0.90625 0.359375 -2.734375 0.625q-1.03125 0.140625 -1.453125 0.328125q-0.421875 0.1875 -0.65625 0.546875q-0.234375 0.359375 -0.234375 0.796875q0 0.671875 0.5 1.125q0.515625 0.4375 1.484375 0.4375q0.96875 0 1.71875 -0.421875q0.75 -0.4375 1.109375 -1.15625q0.265625 -0.578125 0.265625 -1.671875l0 -0.609375zm7.735092 3.4375l0.234375 1.484375q-0.703125 0.140625 -1.265625 0.140625q-0.90625 0 -1.40625 -0.28125q-0.5 -0.296875 -0.703125 -0.75q-0.203125 -0.46875 -0.203125 -1.984375l0 -5.65625l-1.234375 0l0 -1.3125l1.234375 0l0 -2.4375l1.65625 -1.0l0 3.4375l1.6875 0l0 1.3125l-1.6875 0l0 5.75q0 0.71875 0.078125 0.921875q0.09375 0.203125 0.296875 0.328125q0.203125 0.125 0.578125 0.125q0.265625 0 0.734375 -0.078125zm1.5426788 -10.1875l0 -1.90625l1.671875 0l0 1.90625l-1.671875 0zm0 11.6875l0 -9.859375l1.671875 0l0 9.859375l-1.671875 0zm3.5041962 -4.921875q0 -2.734375 1.53125 -4.0625q1.265625 -1.09375 3.09375 -1.09375q2.03125 0 3.3125 1.34375q1.296875 1.328125 1.296875 3.671875q0 1.90625 -0.578125 3.0q-0.5625 1.078125 -1.65625 1.6875q-1.078125 0.59375 -2.375 0.59375q-2.0625 0 -3.34375 -1.328125q-1.28125 -1.328125 -1.28125 -3.8125zm1.71875 0q0 1.890625 0.828125 2.828125q0.828125 0.9375 2.078125 0.9375q1.25 0 2.0625 -0.9375q0.828125 -0.953125 0.828125 -2.890625q0 -1.828125 -0.828125 -2.765625q-0.828125 -0.9375 -2.0625 -0.9375q-1.25 0 -2.078125 0.9375q-0.828125 0.9375 -0.828125 2.828125zm9.281967 4.921875l0 -9.859375l1.5 0l0 1.40625q1.09375 -1.625 3.140625 -1.625q0.890625 0 1.640625 0.328125q0.75 0.3125 1.109375 0.84375q0.375 0.515625 0.53125 1.21875q0.09375 0.46875 0.09375 1.625l0 6.0625l-1.671875 0l0 -6.0q0 -1.015625 -0.203125 -1.515625q-0.1875 -0.515625 -0.6875 -0.8125q-0.5 -0.296875 -1.171875 -0.296875q-1.0625 0 -1.84375 0.671875q-0.765625 0.671875 -0.765625 2.578125l0 5.375l-1.671875 0z" fill-rule="nonzero"></path><path fill="#000000" d="m89.89787 311.00815q0 -3.390625 1.8125 -5.296875q1.828125 -1.921875 4.703125 -1.921875q1.875 0 3.390625 0.90625q1.515625 0.890625 2.296875 2.5q0.796875 1.609375 0.796875 3.65625q0 2.0625 -0.84375 3.703125q-0.828125 1.625 -2.359375 2.46875q-1.53125 0.84375 -3.296875 0.84375q-1.921875 0 -3.4375 -0.921875q-1.5 -0.9375 -2.28125 -2.53125q-0.78125 -1.609375 -0.78125 -3.40625zm1.859375 0.03125q0 2.453125 1.3125 3.875q1.328125 1.40625 3.3125 1.40625q2.03125 0 3.34375 -1.421875q1.3125 -1.4375 1.3125 -4.0625q0 -1.65625 -0.5625 -2.890625q-0.546875 -1.234375 -1.640625 -1.921875q-1.078125 -0.6875 -2.421875 -0.6875q-1.90625 0 -3.28125 1.3125q-1.375 1.3125 -1.375 4.390625zm12.980179 10.375l0 -13.640625l1.53125 0l0 1.28125q0.53125 -0.75 1.203125 -1.125q0.6875 -0.375 1.640625 -0.375q1.265625 0 2.234375 0.65625q0.96875 0.640625 1.453125 1.828125q0.5 1.1875 0.5 2.59375q0 1.515625 -0.546875 2.734375q-0.546875 1.203125 -1.578125 1.84375q-1.03125 0.640625 -2.171875 0.640625q-0.84375 0 -1.515625 -0.34375q-0.65625 -0.359375 -1.078125 -0.890625l0 4.796875l-1.671875 0zm1.515625 -8.65625q0 1.90625 0.765625 2.8125q0.78125 0.90625 1.875 0.90625q1.109375 0 1.890625 -0.9375q0.796875 -0.9375 0.796875 -2.921875q0 -1.875 -0.78125 -2.8125q-0.765625 -0.9375 -1.84375 -0.9375q-1.0625 0 -1.890625 1.0q-0.8125 1.0 -0.8125 2.890625zm15.610092 1.703125l1.71875 0.21875q-0.40625 1.5 -1.515625 2.34375q-1.09375 0.828125 -2.8125 0.828125q-2.15625 0 -3.421875 -1.328125q-1.265625 -1.328125 -1.265625 -3.734375q0 -2.484375 1.265625 -3.859375q1.28125 -1.375 3.328125 -1.375q1.984375 0 3.234375 1.34375q1.25 1.34375 1.25 3.796875q0 0.140625 -0.015625 0.4375l-7.34375 0q0.09375 1.625 0.921875 2.484375q0.828125 0.859375 2.0625 0.859375q0.90625 0 1.546875 -0.46875q0.65625 -0.484375 1.046875 -1.546875zm-5.484375 -2.703125l5.5 0q-0.109375 -1.234375 -0.625 -1.859375q-0.796875 -0.96875 -2.078125 -0.96875q-1.140625 0 -1.9375 0.78125q-0.78125 0.765625 -0.859375 2.046875zm9.094467 5.875l0 -9.859375l1.5 0l0 1.5q0.578125 -1.046875 1.0625 -1.375q0.484375 -0.34375 1.078125 -0.34375q0.84375 0 1.71875 0.546875l-0.578125 1.546875q-0.609375 -0.359375 -1.234375 -0.359375q-0.546875 0 -0.984375 0.328125q-0.421875 0.328125 -0.609375 0.90625q-0.28125 0.890625 -0.28125 1.953125l0 5.15625l-1.671875 0zm12.665802 -1.21875q-0.9375 0.796875 -1.796875 1.125q-0.859375 0.3125 -1.84375 0.3125q-1.609375 0 -2.484375 -0.78125q-0.875 -0.796875 -0.875 -2.03125q0 -0.734375 0.328125 -1.328125q0.328125 -0.59375 0.859375 -0.953125q0.53125 -0.359375 1.203125 -0.546875q0.5 -0.140625 1.484375 -0.25q2.03125 -0.25 2.984375 -0.578125q0 -0.34375 0 -0.4375q0 -1.015625 -0.46875 -1.4375q-0.640625 -0.5625 -1.90625 -0.5625q-1.171875 0 -1.734375 0.40625q-0.5625 0.40625 -0.828125 1.46875l-1.640625 -0.234375q0.234375 -1.046875 0.734375 -1.6875q0.515625 -0.640625 1.46875 -0.984375q0.96875 -0.359375 2.25 -0.359375q1.265625 0 2.046875 0.296875q0.78125 0.296875 1.15625 0.75q0.375 0.453125 0.515625 1.140625q0.09375 0.421875 0.09375 1.53125l0 2.234375q0 2.328125 0.09375 2.953125q0.109375 0.609375 0.4375 1.171875l-1.75 0q-0.265625 -0.515625 -0.328125 -1.21875zm-0.140625 -3.71875q-0.90625 0.359375 -2.734375 0.625q-1.03125 0.140625 -1.453125 0.328125q-0.421875 0.1875 -0.65625 0.546875q-0.234375 0.359375 -0.234375 0.796875q0 0.671875 0.5 1.125q0.515625 0.4375 1.484375 0.4375q0.96875 0 1.71875 -0.421875q0.75 -0.4375 1.109375 -1.15625q0.265625 -0.578125 0.265625 -1.671875l0 -0.609375zm7.735092 3.4375l0.234375 1.484375q-0.703125 0.140625 -1.265625 0.140625q-0.90625 0 -1.40625 -0.28125q-0.5 -0.296875 -0.703125 -0.75q-0.203125 -0.46875 -0.203125 -1.984375l0 -5.65625l-1.234375 0l0 -1.3125l1.234375 0l0 -2.4375l1.65625 -1.0l0 3.4375l1.6875 0l0 1.3125l-1.6875 0l0 5.75q0 0.71875 0.078125 0.921875q0.09375 0.203125 0.296875 0.328125q0.203125 0.125 0.578125 0.125q0.265625 0 0.734375 -0.078125zm0.90205383 -3.421875q0 -2.734375 1.53125 -4.0625q1.265625 -1.09375 3.09375 -1.09375q2.03125 0 3.3125 1.34375q1.296875 1.328125 1.296875 3.671875q0 1.90625 -0.578125 3.0q-0.5625 1.078125 -1.65625 1.6875q-1.078125 0.59375 -2.375 0.59375q-2.0625 0 -3.34375 -1.328125q-1.28125 -1.328125 -1.28125 -3.8125zm1.71875 0q0 1.890625 0.828125 2.828125q0.828125 0.9375 2.078125 0.9375q1.25 0 2.0625 -0.9375q0.828125 -0.953125 0.828125 -2.890625q0 -1.828125 -0.828125 -2.765625q-0.828125 -0.9375 -2.0625 -0.9375q-1.25 0 -2.078125 0.9375q-0.828125 0.9375 -0.828125 2.828125zm9.266342 4.921875l0 -9.859375l1.5 0l0 1.5q0.578125 -1.046875 1.0625 -1.375q0.484375 -0.34375 1.078125 -0.34375q0.84375 0 1.71875 0.546875l-0.578125 1.546875q-0.609375 -0.359375 -1.234375 -0.359375q-0.546875 0 -0.984375 0.328125q-0.421875 0.328125 -0.609375 0.90625q-0.28125 0.890625 -0.28125 1.953125l0 5.15625l-1.671875 0zm14.599106 4.0q-1.375 -1.75 -2.328125 -4.078125q-0.953125 -2.34375 -0.953125 -4.84375q0 -2.21875 0.703125 -4.234375q0.84375 -2.34375 2.578125 -4.671875l1.203125 0q-1.125 1.921875 -1.484375 2.75q-0.5625 1.28125 -0.890625 2.671875q-0.40625 1.734375 -0.40625 3.484375q0 4.46875 2.78125 8.921875l-1.203125 0z" fill-rule="nonzero"></path><path fill="#000000" d="m174.82306 317.63315l2.84375 -13.59375l2.234375 0l1.375 8.8125q0.265625 1.734375 0.359375 3.328125q0.5625 -1.375 1.890625 -3.71875l4.765625 -8.421875l2.265625 0l-2.828125 13.59375l-1.796875 0l1.421875 -6.609375q0.484375 -2.296875 1.40625 -5.140625q-0.578125 1.328125 -1.4375 2.859375l-5.078125 8.890625l-1.75 0l-1.359375 -8.71875q-0.1875 -1.203125 -0.265625 -2.796875q-0.234375 1.796875 -0.453125 2.84375l-1.8125 8.671875l-1.78125 0z" fill-rule="nonzero"></path><path fill="#000000" d="m191.87949 321.63315l-1.1875 0q2.765625 -4.453125 2.765625 -8.921875q0 -1.734375 -0.390625 -3.453125q-0.328125 -1.390625 -0.890625 -2.671875q-0.359375 -0.84375 -1.484375 -2.78125l1.1875 0q1.75 2.328125 2.578125 4.671875q0.71875 2.015625 0.71875 4.234375q0 2.5 -0.96875 4.84375q-0.953125 2.328125 -2.328125 4.078125z" fill-rule="nonzero"></path><path fill="#eeeeee" d="m313.0853 281.40567l0 0c0 -5.0474854 4.091797 -9.139282 9.139282 -9.139282l156.39859 0c2.4238892 0 4.7485046 0.9628906 6.4624634 2.6768494c1.7139282 1.7139282 2.6768188 4.0385437 2.6768188 6.462433l0 36.55606c0 5.047516 -4.091797 9.139313 -9.139282 9.139313l-156.39859 0c-5.0474854 0 -9.139282 -4.091797 -9.139282 -9.139313z" fill-rule="evenodd"></path><path stroke="#595959" stroke-width="1.0" stroke-linejoin="round" stroke-linecap="butt" stroke-dasharray="4.0,3.0" d="m313.0853 281.40567l0 0c0 -5.0474854 4.091797 -9.139282 9.139282 -9.139282l156.39859 0c2.4238892 0 4.7485046 0.9628906 6.4624634 2.6768494c1.7139282 1.7139282 2.6768188 4.0385437 2.6768188 6.462433l0 36.55606c0 5.047516 -4.091797 9.139313 -9.139282 9.139313l-156.39859 0c-5.0474854 0 -9.139282 -4.091797 -9.139282 -9.139313z" fill-rule="evenodd"></path><path fill="#000000" d="m328.21173 295.6037l0 -13.59375l2.71875 0l3.21875 9.625q0.4375 1.34375 0.640625 2.015625q0.234375 -0.75 0.734375 -2.1875l3.25 -9.453125l2.421875 0l0 13.59375l-1.734375 0l0 -11.390625l-3.953125 11.390625l-1.625 0l-3.9375 -11.578125l0 11.578125l-1.734375 0zm14.759552 -4.921875q0 -2.734375 1.53125 -4.0625q1.265625 -1.09375 3.09375 -1.09375q2.03125 0 3.3125 1.34375q1.296875 1.328125 1.296875 3.671875q0 1.90625 -0.578125 3.0q-0.5625 1.078125 -1.65625 1.6875q-1.078125 0.59375 -2.375 0.59375q-2.0625 0 -3.34375 -1.328125q-1.28125 -1.328125 -1.28125 -3.8125zm1.71875 0q0 1.890625 0.828125 2.828125q0.828125 0.9375 2.078125 0.9375q1.25 0 2.0625 -0.9375q0.828125 -0.953125 0.828125 -2.890625q0 -1.828125 -0.828125 -2.765625q-0.828125 -0.9375 -2.0625 -0.9375q-1.25 0 -2.078125 0.9375q-0.828125 0.9375 -0.828125 2.828125zm15.672577 4.921875l0 -1.25q-0.9375 1.46875 -2.75 1.46875q-1.171875 0 -2.171875 -0.640625q-0.984375 -0.65625 -1.53125 -1.8125q-0.53125 -1.171875 -0.53125 -2.6875q0 -1.46875 0.484375 -2.671875q0.5 -1.203125 1.46875 -1.84375q0.984375 -0.640625 2.203125 -0.640625q0.890625 0 1.578125 0.375q0.703125 0.375 1.140625 0.984375l0 -4.875l1.65625 0l0 13.59375l-1.546875 0zm-5.28125 -4.921875q0 1.890625 0.796875 2.828125q0.8125 0.9375 1.890625 0.9375q1.09375 0 1.859375 -0.890625q0.765625 -0.890625 0.765625 -2.734375q0 -2.015625 -0.78125 -2.953125q-0.78125 -0.953125 -1.921875 -0.953125q-1.109375 0 -1.859375 0.90625q-0.75 0.90625 -0.75 2.859375zm9.281982 -6.765625l0 -1.90625l1.671875 0l0 1.90625l-1.671875 0zm0 11.6875l0 -9.859375l1.671875 0l0 9.859375l-1.671875 0zm4.535431 0l0 -8.546875l-1.484375 0l0 -1.3125l1.484375 0l0 -1.046875q0 -0.984375 0.171875 -1.46875q0.234375 -0.65625 0.84375 -1.046875q0.609375 -0.40625 1.703125 -0.40625q0.703125 0 1.5625 0.15625l-0.25 1.46875q-0.515625 -0.09375 -0.984375 -0.09375q-0.765625 0 -1.078125 0.328125q-0.3125 0.3125 -0.3125 1.203125l0 0.90625l1.921875 0l0 1.3125l-1.921875 0l0 8.546875l-1.65625 0zm4.792694 -11.6875l0 -1.90625l1.671875 0l0 1.90625l-1.671875 0zm0 11.6875l0 -9.859375l1.671875 0l0 9.859375l-1.671875 0zm10.879181 -3.171875l1.71875 0.21875q-0.40625 1.5 -1.515625 2.34375q-1.09375 0.828125 -2.8125 0.828125q-2.15625 0 -3.421875 -1.328125q-1.265625 -1.328125 -1.265625 -3.734375q0 -2.484375 1.265625 -3.859375q1.28125 -1.375 3.328125 -1.375q1.984375 0 3.234375 1.34375q1.25 1.34375 1.25 3.796875q0 0.140625 -0.015625 0.4375l-7.34375 0q0.09375 1.625 0.921875 2.484375q0.828125 0.859375 2.0625 0.859375q0.90625 0 1.546875 -0.46875q0.65625 -0.484375 1.046875 -1.546875zm-5.484375 -2.703125l5.5 0q-0.109375 -1.234375 -0.625 -1.859375q-0.796875 -0.96875 -2.078125 -0.96875q-1.140625 0 -1.9375 0.78125q-0.78125 0.765625 -0.859375 2.046875zm15.500732 5.875l0 -1.25q-0.9375 1.46875 -2.75 1.46875q-1.171875 0 -2.171875 -0.640625q-0.984375 -0.65625 -1.53125 -1.8125q-0.53125 -1.171875 -0.53125 -2.6875q0 -1.46875 0.484375 -2.671875q0.5 -1.203125 1.46875 -1.84375q0.984375 -0.640625 2.203125 -0.640625q0.890625 0 1.578125 0.375q0.703125 0.375 1.140625 0.984375l0 -4.875l1.65625 0l0 13.59375l-1.546875 0zm-5.28125 -4.921875q0 1.890625 0.796875 2.828125q0.8125 0.9375 1.890625 0.9375q1.09375 0 1.859375 -0.890625q0.765625 -0.890625 0.765625 -2.734375q0 -2.015625 -0.78125 -2.953125q-0.78125 -0.953125 -1.921875 -0.953125q-1.109375 0 -1.859375 0.90625q-0.75 0.90625 -0.75 2.859375zm14.668396 4.921875l0 -13.59375l5.125 0q1.359375 0 2.078125 0.125q1.0 0.171875 1.671875 0.640625q0.671875 0.46875 1.078125 1.3125q0.421875 0.84375 0.421875 1.84375q0 1.734375 -1.109375 2.9375q-1.09375 1.203125 -3.984375 1.203125l-3.484375 0l0 5.53125l-1.796875 0zm1.796875 -7.140625l3.515625 0q1.75 0 2.46875 -0.640625q0.734375 -0.65625 0.734375 -1.828125q0 -0.859375 -0.4375 -1.46875q-0.421875 -0.609375 -1.125 -0.796875q-0.453125 -0.125 -1.671875 -0.125l-3.484375 0l0 4.859375zm10.412323 7.140625l0 -9.859375l1.5 0l0 1.5q0.578125 -1.046875 1.0625 -1.375q0.484375 -0.34375 1.078125 -0.34375q0.84375 0 1.71875 0.546875l-0.578125 1.546875q-0.609375 -0.359375 -1.234375 -0.359375q-0.546875 0 -0.984375 0.328125q-0.421875 0.328125 -0.609375 0.90625q-0.28125 0.890625 -0.28125 1.953125l0 5.15625l-1.671875 0zm5.603302 -4.921875q0 -2.734375 1.53125 -4.0625q1.265625 -1.09375 3.09375 -1.09375q2.03125 0 3.3125 1.34375q1.296875 1.328125 1.296875 3.671875q0 1.90625 -0.578125 3.0q-0.5625 1.078125 -1.65625 1.6875q-1.078125 0.59375 -2.375 0.59375q-2.0625 0 -3.34375 -1.328125q-1.28125 -1.328125 -1.28125 -3.8125zm1.71875 0q0 1.890625 0.828125 2.828125q0.828125 0.9375 2.078125 0.9375q1.25 0 2.0625 -0.9375q0.828125 -0.953125 0.828125 -2.890625q0 -1.828125 -0.828125 -2.765625q-0.828125 -0.9375 -2.0625 -0.9375q-1.25 0 -2.078125 0.9375q-0.828125 0.9375 -0.828125 2.828125zm8.985077 5.734375l1.609375 0.25q0.109375 0.75 0.578125 1.09375q0.609375 0.453125 1.6875 0.453125q1.171875 0 1.796875 -0.46875q0.625 -0.453125 0.859375 -1.28125q0.125 -0.515625 0.109375 -2.15625q-1.09375 1.296875 -2.71875 1.296875q-2.03125 0 -3.15625 -1.46875q-1.109375 -1.46875 -1.109375 -3.515625q0 -1.40625 0.515625 -2.59375q0.515625 -1.203125 1.484375 -1.84375q0.96875 -0.65625 2.265625 -0.65625q1.75 0 2.875 1.40625l0 -1.1875l1.546875 0l0 8.515625q0 2.3125 -0.46875 3.265625q-0.46875 0.96875 -1.484375 1.515625q-1.015625 0.5625 -2.5 0.5625q-1.765625 0 -2.859375 -0.796875q-1.078125 -0.796875 -1.03125 -2.390625zm1.375 -5.921875q0 1.953125 0.765625 2.84375q0.78125 0.890625 1.9375 0.890625q1.140625 0 1.921875 -0.890625q0.78125 -0.890625 0.78125 -2.78125q0 -1.8125 -0.8125 -2.71875q-0.796875 -0.921875 -1.921875 -0.921875q-1.109375 0 -1.890625 0.90625q-0.78125 0.890625 -0.78125 2.671875zm9.281982 5.109375l0 -9.859375l1.4999695 0l0 1.5q0.578125 -1.046875 1.0625 -1.375q0.484375 -0.34375 1.078125 -0.34375q0.84375 0 1.71875 0.546875l-0.578125 1.546875q-0.609375 -0.359375 -1.234375 -0.359375q-0.546875 0 -0.984375 0.328125q-0.421875 0.328125 -0.609375 0.90625q-0.28125 0.890625 -0.28125 1.953125l0 5.15625l-1.6718445 0zm12.6657715 -1.21875q-0.9375 0.796875 -1.796875 1.125q-0.859375 0.3125 -1.84375 0.3125q-1.609375 0 -2.484375 -0.78125q-0.875 -0.796875 -0.875 -2.03125q0 -0.734375 0.328125 -1.328125q0.328125 -0.59375 0.859375 -0.953125q0.53125 -0.359375 1.203125 -0.546875q0.5 -0.140625 1.484375 -0.25q2.03125 -0.25 2.984375 -0.578125q0 -0.34375 0 -0.4375q0 -1.015625 -0.46875 -1.4375q-0.640625 -0.5625 -1.90625 -0.5625q-1.171875 0 -1.734375 0.40625q-0.5625 0.40625 -0.828125 1.46875l-1.640625 -0.234375q0.234375 -1.046875 0.734375 -1.6875q0.515625 -0.640625 1.46875 -0.984375q0.96875 -0.359375 2.25 -0.359375q1.265625 0 2.046875 0.296875q0.78125 0.296875 1.15625 0.75q0.375 0.453125 0.515625 1.140625q0.09375 0.421875 0.09375 1.53125l0 2.234375q0 2.328125 0.09375 2.953125q0.109375 0.609375 0.4375 1.171875l-1.75 0q-0.265625 -0.515625 -0.328125 -1.21875zm-0.140625 -3.71875q-0.90625 0.359375 -2.734375 0.625q-1.03125 0.140625 -1.453125 0.328125q-0.421875 0.1875 -0.65625 0.546875q-0.234375 0.359375 -0.234375 0.796875q0 0.671875 0.5 1.125q0.515625 0.4375 1.484375 0.4375q0.96875 0 1.71875 -0.421875q0.75 -0.4375 1.109375 -1.15625q0.265625 -0.578125 0.265625 -1.671875l0 -0.609375zm4.0788574 4.9375l0 -9.859375l1.5 0l0 1.390625q0.453125 -0.71875 1.21875 -1.15625q0.78125 -0.453125 1.765625 -0.453125q1.09375 0 1.796875 0.453125q0.703125 0.453125 0.984375 1.28125q1.171875 -1.734375 3.046875 -1.734375q1.46875 0 2.25 0.8125q0.796875 0.8125 0.796875 2.5l0 6.765625l-1.671875 0l0 -6.203125q0 -1.0 -0.15625 -1.4375q-0.15625 -0.453125 -0.59375 -0.71875q-0.421875 -0.265625 -1.0 -0.265625q-1.03125 0 -1.71875 0.6875q-0.6875 0.6875 -0.6875 2.21875l0 5.71875l-1.671875 0l0 -6.40625q0 -1.109375 -0.40625 -1.65625q-0.40625 -0.5625 -1.34375 -0.5625q-0.703125 0 -1.3125 0.375q-0.59375 0.359375 -0.859375 1.078125q-0.265625 0.71875 -0.265625 2.0625l0 5.109375l-1.671875 0z" fill-rule="nonzero"></path><path fill="#000000" d="m390.3545 321.6037q-1.375 -1.75 -2.328125 -4.078125q-0.953125 -2.34375 -0.953125 -4.84375q0 -2.21875 0.703125 -4.234375q0.84375 -2.34375 2.578125 -4.671875l1.203125 0q-1.125 1.921875 -1.484375 2.75q-0.5625 1.28125 -0.890625 2.671875q-0.40625 1.734375 -0.40625 3.484375q0 4.46875 2.78125 8.921875l-1.203125 0z" fill-rule="nonzero"></path><path fill="#000000" d="m392.94217 317.6037l2.859375 -13.59375l5.671875 0q1.46875 0 2.203125 0.34375q0.75 0.328125 1.21875 1.15625q0.484375 0.8125 0.484375 1.828125q0 0.84375 -0.34375 1.71875q-0.328125 0.875 -0.859375 1.4375q-0.53125 0.5625 -1.0625 0.859375q-0.53125 0.28125 -1.15625 0.421875q-1.296875 0.3125 -2.640625 0.3125l-3.40625 0l-1.140625 5.515625l-1.828125 0zm3.296875 -7.0625l3.0 0q1.734375 0 2.546875 -0.375q0.828125 -0.375 1.3125 -1.140625q0.5 -0.78125 0.5 -1.640625q0 -0.65625 -0.265625 -1.078125q-0.25 -0.4375 -0.734375 -0.625q-0.46875 -0.203125 -1.8125 -0.203125l-3.484375 0l-1.0625 5.0625zm11.287323 -4.578125l0.390625 -1.90625l1.921875 0l-0.34375 1.671875q-0.3125 1.5 -0.984375 2.1875q-0.65625 0.6875 -1.5625 0.796875l0.15625 -0.734375q1.09375 -0.296875 1.453125 -2.015625l-1.03125 0z" fill-rule="nonzero"></path><path fill="#000000" d="m411.06183 321.6037l-1.1875 0q2.765625 -4.453125 2.765625 -8.921875q0 -1.734375 -0.390625 -3.453125q-0.328125 -1.390625 -0.890625 -2.671875q-0.359375 -0.84375 -1.484375 -2.78125l1.1875 0q1.75 2.328125 2.578125 4.671875q0.71875 2.015625 0.71875 4.234375q0 2.5 -0.96875 4.84375q-0.953125 2.328125 -2.328125 4.078125z" fill-rule="nonzero"></path><path fill="#000000" fill-opacity="0.0" d="m217.08661 299.71313l47.999054 0l0 0.06298828l48.000946 0" fill-rule="evenodd"></path><path stroke="#595959" stroke-width="1.0" stroke-linejoin="round" stroke-linecap="butt" d="m217.08661 299.71313l47.999054 0l0 0.06298828l42.000946 0" fill-rule="evenodd"></path><path fill="#595959" stroke="#595959" stroke-width="1.0" stroke-linecap="butt" d="m307.0866 301.42786l4.5381165 -1.6517334l-4.5381165 -1.6517334z" fill-rule="evenodd"></path><path fill="#eeeeee" d="m531.8635 299.6811l0 0c0 -3.20932 2.6016846 -5.8110046 5.811035 -5.8110046l0 0c1.5411377 0 3.019226 0.61221313 4.109009 1.7019958c1.0897827 1.0897827 1.7019653 2.5678406 1.7019653 4.109009l0 0c0 3.2093506 -2.6016846 5.811035 -5.810974 5.811035l0 0c-3.2093506 0 -5.811035 -2.6016846 -5.811035 -5.811035z" fill-rule="evenodd"></path><path stroke="#595959" stroke-width="1.0" stroke-linejoin="round" stroke-linecap="butt" d="m531.8635 299.6811l0 0c0 -3.20932 2.6016846 -5.8110046 5.811035 -5.8110046l0 0c1.5411377 0 3.019226 0.61221313 4.109009 1.7019958c1.0897827 1.0897827 1.7019653 2.5678406 1.7019653 4.109009l0 0c0 3.2093506 -2.6016846 5.811035 -5.810974 5.811035l0 0c-3.2093506 0 -5.811035 -2.6016846 -5.811035 -5.811035z" fill-rule="evenodd"></path><path fill="#000000" fill-opacity="0.0" d="m487.76245 299.68372l22.050323 0l0 0.06298828l22.044159 0" fill-rule="evenodd"></path><path stroke="#595959" stroke-width="1.0" stroke-linejoin="round" stroke-linecap="butt" d="m487.76248 299.68372l22.050293 0l0 0.06298828l16.044159 0" fill-rule="evenodd"></path><path fill="#595959" stroke="#595959" stroke-width="1.0" stroke-linecap="butt" d="m525.85693 301.39844l4.538147 -1.6517334l-4.538147 -1.6517334z" fill-rule="evenodd"></path><path fill="#000000" fill-opacity="0.0" d="m142.3622 266.04385l0 -100.81891" fill-rule="evenodd"></path><path stroke="#595959" stroke-width="1.0" stroke-linejoin="round" stroke-linecap="butt" d="m142.3622 266.04385l0 -94.81891" fill-rule="evenodd"></path><path fill="#595959" stroke="#595959" stroke-width="1.0" stroke-linecap="butt" d="m144.01393 171.22495l-1.6517334 -4.538101l-1.6517181 4.538101z" fill-rule="evenodd"></path><path fill="#000000" fill-opacity="0.0" d="m11.653543 186.0958l130.70865 0l0 37.88977l-130.70865 0z" fill-rule="evenodd"></path><path fill="#000000" d="m114.06533 210.4558l0 -1.21875q-0.96875 1.40625 -2.640625 1.40625q-0.734375 0 -1.375 -0.28125q-0.625 -0.28125 -0.9375 -0.703125q-0.3125 -0.4375 -0.4375 -1.046875q-0.078125 -0.421875 -0.078125 -1.3125l0 -5.140625l1.40625 0l0 4.59375q0 1.109375 0.078125 1.484375q0.140625 0.5625 0.5625 0.875q0.4375 0.3125 1.0625 0.3125q0.640625 0 1.1875 -0.3125q0.5625 -0.328125 0.78125 -0.890625q0.234375 -0.5625 0.234375 -1.625l0 -4.4375l1.40625 0l0 8.296875l-1.25 0zm2.8984375 -2.484375l1.390625 -0.21875q0.109375 0.84375 0.640625 1.296875q0.546875 0.4375 1.5 0.4375q0.96875 0 1.4375 -0.390625q0.46875 -0.40625 0.46875 -0.9375q0 -0.46875 -0.40625 -0.75q-0.296875 -0.1875 -1.4375 -0.46875q-1.546875 -0.390625 -2.15625 -0.671875q-0.59375 -0.296875 -0.90625 -0.796875q-0.296875 -0.5 -0.296875 -1.109375q0 -0.5625 0.25 -1.03125q0.25 -0.46875 0.6875 -0.78125q0.328125 -0.25 0.890625 -0.40625q0.578125 -0.171875 1.21875 -0.171875q0.984375 0 1.71875 0.28125q0.734375 0.28125 1.078125 0.765625q0.359375 0.46875 0.5 1.28125l-1.375 0.1875q-0.09375 -0.640625 -0.546875 -1.0q-0.453125 -0.359375 -1.265625 -0.359375q-0.96875 0 -1.390625 0.328125q-0.40625 0.3125 -0.40625 0.734375q0 0.28125 0.171875 0.5q0.171875 0.21875 0.53125 0.375q0.21875 0.078125 1.25 0.359375q1.484375 0.390625 2.078125 0.65625q0.59375 0.25 0.921875 0.734375q0.34375 0.484375 0.34375 1.203125q0 0.703125 -0.421875 1.328125q-0.40625 0.609375 -1.1875 0.953125q-0.765625 0.34375 -1.734375 0.34375q-1.625 0 -2.46875 -0.671875q-0.84375 -0.671875 -1.078125 -2.0zm14.234383 -0.1875l1.453125 0.171875q-0.34375 1.28125 -1.28125 1.984375q-0.921875 0.703125 -2.359375 0.703125q-1.8281326 0 -2.8906326 -1.125q-1.0625 -1.125 -1.0625 -3.140625q0 -2.09375 1.078125 -3.25q1.078125 -1.15625 2.7968826 -1.15625q1.65625 0 2.703125 1.140625q1.0625 1.125 1.0625 3.171875q0 0.125 0 0.375l-6.1875076 0q0.078125 1.375 0.765625 2.109375q0.703125 0.71875 1.7343826 0.71875q0.78125 0 1.328125 -0.40625q0.546875 -0.40625 0.859375 -1.296875zm-4.6093826 -2.28125l4.6250076 0q-0.09375 -1.046875 -0.53125 -1.5625q-0.671875 -0.8125 -1.734375 -0.8125q-0.9687576 0 -1.6406326 0.65625q-0.65625 0.640625 -0.71875 1.71875z" fill-rule="nonzero"></path><path fill="#000000" fill-opacity="0.0" d="m543.48553 299.6811l40.28351 0" fill-rule="evenodd"></path><path stroke="#595959" stroke-width="1.0" stroke-linejoin="round" stroke-linecap="butt" d="m543.48553 299.6811l34.28351 0" fill-rule="evenodd"></path><path fill="#595959" stroke="#595959" stroke-width="1.0" stroke-linecap="butt" d="m577.76904 301.33282l4.538086 -1.6517334l-4.538086 -1.6517334z" fill-rule="evenodd"></path><path fill="#eeeeee" d="m321.0062 171.37325l149.44879 0l0 67.33858l-149.44879 0z" fill-rule="evenodd"></path><path stroke="#595959" stroke-width="1.0" stroke-linejoin="round" stroke-linecap="butt" d="m321.0062 171.37325l149.44879 0l0 67.33858l-149.44879 0z" fill-rule="evenodd"></path><path fill="#000000" d="m365.91797 200.96252l0 -12.0l-4.46875 0l0 -1.59375l10.765625 0l0 1.59375l-4.5 0l0 12.0l-1.796875 0zm14.474091 -3.171875l1.71875 0.21875q-0.40625 1.5 -1.515625 2.34375q-1.09375 0.828125 -2.8125 0.828125q-2.15625 0 -3.421875 -1.328125q-1.265625 -1.328125 -1.265625 -3.734375q0 -2.484375 1.265625 -3.859375q1.28125 -1.375 3.328125 -1.375q1.984375 0 3.234375 1.34375q1.25 1.34375 1.25 3.796875q0 0.140625 -0.015625 0.4375l-7.34375 0q0.09375 1.625 0.921875 2.484375q0.828125 0.859375 2.0625 0.859375q0.90625 0 1.546875 -0.46875q0.65625 -0.484375 1.046875 -1.546875zm-5.484375 -2.703125l5.5 0q-0.109375 -1.234375 -0.625 -1.859375q-0.796875 -0.96875 -2.078125 -0.96875q-1.140625 0 -1.9375 0.78125q-0.78125 0.765625 -0.859375 2.046875zm8.438232 2.9375l1.65625 -0.265625q0.140625 1.0 0.765625 1.53125q0.640625 0.515625 1.78125 0.515625q1.15625 0 1.703125 -0.46875q0.5625 -0.46875 0.5625 -1.09375q0 -0.5625 -0.484375 -0.890625q-0.34375 -0.21875 -1.703125 -0.5625q-1.84375 -0.46875 -2.5625 -0.796875q-0.703125 -0.34375 -1.078125 -0.9375q-0.359375 -0.609375 -0.359375 -1.328125q0 -0.65625 0.296875 -1.21875q0.3125 -0.5625 0.828125 -0.9375q0.390625 -0.28125 1.0625 -0.484375q0.671875 -0.203125 1.4375 -0.203125q1.171875 0 2.046875 0.34375q0.875 0.328125 1.28125 0.90625q0.421875 0.5625 0.578125 1.515625l-1.625 0.21875q-0.109375 -0.75 -0.65625 -1.171875q-0.53125 -0.4375 -1.5 -0.4375q-1.15625 0 -1.640625 0.390625q-0.484375 0.375 -0.484375 0.875q0 0.328125 0.203125 0.59375q0.203125 0.265625 0.640625 0.4375q0.25 0.09375 1.46875 0.4375q1.765625 0.46875 2.46875 0.765625q0.703125 0.296875 1.09375 0.875q0.40625 0.578125 0.40625 1.4375q0 0.828125 -0.484375 1.578125q-0.484375 0.734375 -1.40625 1.140625q-0.921875 0.390625 -2.078125 0.390625q-1.921875 0 -2.9375 -0.796875q-1.0 -0.796875 -1.28125 -2.359375zm13.65625 1.4375l0.234375 1.484375q-0.703125 0.140625 -1.265625 0.140625q-0.90625 0 -1.40625 -0.28125q-0.5 -0.296875 -0.703125 -0.75q-0.203125 -0.46875 -0.203125 -1.984375l0 -5.65625l-1.234375 0l0 -1.3125l1.234375 0l0 -2.4375l1.65625 -1.0l0 3.4375l1.6875 0l0 1.3125l-1.6875 0l0 5.75q0 0.71875 0.078125 0.921875q0.09375 0.203125 0.296875 0.328125q0.203125 0.125 0.578125 0.125q0.265625 0 0.734375 -0.078125zm6.3197327 -2.875l1.6875 -0.140625q0.125 1.015625 0.5625 1.671875q0.4375 0.65625 1.359375 1.0625q0.9375 0.40625 2.09375 0.40625q1.03125 0 1.8125 -0.3125q0.796875 -0.3125 1.1875 -0.84375q0.390625 -0.53125 0.390625 -1.15625q0 -0.640625 -0.375 -1.109375q-0.375 -0.484375 -1.234375 -0.8125q-0.546875 -0.21875 -2.421875 -0.65625q-1.875 -0.453125 -2.625 -0.859375q-0.96875 -0.515625 -1.453125 -1.265625q-0.46875 -0.75 -0.46875 -1.6875q0 -1.03125 0.578125 -1.921875q0.59375 -0.90625 1.703125 -1.359375q1.125 -0.46875 2.5 -0.46875q1.515625 0 2.671875 0.484375q1.15625 0.484375 1.765625 1.4375q0.625 0.9375 0.671875 2.140625l-1.71875 0.125q-0.140625 -1.28125 -0.953125 -1.9375q-0.796875 -0.671875 -2.359375 -0.671875q-1.625 0 -2.375 0.609375q-0.75 0.59375 -0.75 1.4375q0 0.734375 0.53125 1.203125q0.515625 0.46875 2.703125 0.96875q2.203125 0.5 3.015625 0.875q1.1875 0.546875 1.75 1.390625q0.578125 0.828125 0.578125 1.921875q0 1.09375 -0.625 2.0625q-0.625 0.953125 -1.796875 1.484375q-1.15625 0.53125 -2.609375 0.53125q-1.84375 0 -3.09375 -0.53125q-1.25 -0.546875 -1.96875 -1.625q-0.703125 -1.078125 -0.734375 -2.453125zm19.584198 1.203125l1.71875 0.21875q-0.40625 1.5 -1.515625 2.34375q-1.09375 0.828125 -2.8125 0.828125q-2.15625 0 -3.421875 -1.328125q-1.265625 -1.328125 -1.265625 -3.734375q0 -2.484375 1.265625 -3.859375q1.28125 -1.375 3.328125 -1.375q1.984375 0 3.234375 1.34375q1.25 1.34375 1.25 3.796875q0 0.140625 -0.015625 0.4375l-7.34375 0q0.09375 1.625 0.921875 2.484375q0.828125 0.859375 2.0625 0.859375q0.90625 0 1.546875 -0.46875q0.65625 -0.484375 1.046875 -1.546875zm-5.484375 -2.703125l5.5 0q-0.109375 -1.234375 -0.625 -1.859375q-0.796875 -0.96875 -2.078125 -0.96875q-1.140625 0 -1.9375 0.78125q-0.78125 0.765625 -0.859375 2.046875zm12.766327 4.375l0.234375 1.484375q-0.703125 0.140625 -1.265625 0.140625q-0.90625 0 -1.40625 -0.28125q-0.5 -0.296875 -0.703125 -0.75q-0.203125 -0.46875 -0.203125 -1.984375l0 -5.65625l-1.234375 0l0 -1.3125l1.234375 0l0 -2.4375l1.65625 -1.0l0 3.4375l1.6875 0l0 1.3125l-1.6875 0l0 5.75q0 0.71875 0.078125 0.921875q0.09375 0.203125 0.296875 0.328125q0.203125 0.125 0.578125 0.125q0.265625 0 0.734375 -0.078125z" fill-rule="nonzero"></path><path fill="#000000" d="m365.2603 218.04065q0 -2.734375 1.53125 -4.0625q1.265625 -1.09375 3.09375 -1.09375q2.03125 0 3.3125 1.34375q1.296875 1.328125 1.296875 3.671875q0 1.90625 -0.578125 3.0q-0.5625 1.078125 -1.65625 1.6875q-1.078125 0.59375 -2.375 0.59375q-2.0625 0 -3.34375 -1.328125q-1.28125 -1.328125 -1.28125 -3.8125zm1.71875 0q0 1.890625 0.828125 2.828125q0.828125 0.9375 2.078125 0.9375q1.25 0 2.0625 -0.9375q0.828125 -0.953125 0.828125 -2.890625q0 -1.828125 -0.828125 -2.765625q-0.828125 -0.9375 -2.0625 -0.9375q-1.25 0 -2.078125 0.9375q-0.828125 0.9375 -0.828125 2.828125zm9.688232 4.921875l0 -8.546875l-1.484375 0l0 -1.3125l1.484375 0l0 -1.046875q0 -0.984375 0.171875 -1.46875q0.234375 -0.65625 0.84375 -1.046875q0.609375 -0.40625 1.703125 -0.40625q0.703125 0 1.5625 0.15625l-0.25 1.46875q-0.515625 -0.09375 -0.984375 -0.09375q-0.765625 0 -1.078125 0.328125q-0.3125 0.3125 -0.3125 1.203125l0 0.90625l1.921875 0l0 1.3125l-1.921875 0l0 8.546875l-1.65625 0z" fill-rule="nonzero"></path><path fill="#000000" d="m386.19016 222.96252l2.859375 -13.59375l5.671875 0q1.46875 0 2.203125 0.34375q0.75 0.328125 1.21875 1.15625q0.484375 0.8125 0.484375 1.828125q0 0.84375 -0.34375 1.71875q-0.328125 0.875 -0.859375 1.4375q-0.53125 0.5625 -1.0625 0.859375q-0.53125 0.28125 -1.15625 0.421875q-1.296875 0.3125 -2.640625 0.3125l-3.40625 0l-1.140625 5.515625l-1.828125 0zm3.296875 -7.0625l3.0 0q1.734375 0 2.546875 -0.375q0.828125 -0.375 1.3125 -1.140625q0.5 -0.78125 0.5 -1.640625q0 -0.65625 -0.265625 -1.078125q-0.25 -0.4375 -0.734375 -0.625q-0.46875 -0.203125 -1.8125 -0.203125l-3.484375 0l-1.0625 5.0625z" fill-rule="nonzero"></path><path fill="#000000" d="m407.44202 226.96252q-1.375 -1.75 -2.328125 -4.078125q-0.953125 -2.34375 -0.953125 -4.84375q0 -2.21875 0.703125 -4.234375q0.84375 -2.34375 2.578125 -4.671875l1.203125 0q-1.125 1.921875 -1.484375 2.75q-0.5625 1.28125 -0.890625 2.671875q-0.40625 1.734375 -0.40625 3.484375q0 4.46875 2.78125 8.921875l-1.203125 0z" fill-rule="nonzero"></path><path fill="#000000" d="m413.5297 222.96252l2.515625 -12.046875l-4.46875 0l0.328125 -1.546875l10.703125 0l-0.3125 1.546875l-4.4375 0l-2.515625 12.046875l-1.8125 0z" fill-rule="nonzero"></path><path fill="#000000" d="m422.95694 226.96252l-1.1875 0q2.765625 -4.453125 2.765625 -8.921875q0 -1.734375 -0.390625 -3.453125q-0.328125 -1.390625 -0.890625 -2.671875q-0.359375 -0.84375 -1.484375 -2.78125l1.1875 0q1.75 2.328125 2.578125 4.671875q0.71875 2.015625 0.71875 4.234375q0 2.5 -0.96875 4.84375q-0.953125 2.328125 -2.328125 4.078125z" fill-rule="nonzero"></path><path fill="#eeeeee" d="m531.8731 137.82063l0 0c0 -3.2093353 2.6016846 -5.81102 5.810974 -5.81102l0 0c1.5411987 0 3.019287 0.6122284 4.109009 1.7020111c1.0897827 1.0897675 1.7020264 2.5678253 1.7020264 4.109009l0 0c0 3.2093353 -2.6016846 5.81102 -5.811035 5.81102l0 0c-3.2092896 0 -5.810974 -2.6016846 -5.810974 -5.81102z" fill-rule="evenodd"></path><path stroke="#595959" stroke-width="1.0" stroke-linejoin="round" stroke-linecap="butt" d="m531.8731 137.82063l0 0c0 -3.2093353 2.6016846 -5.81102 5.810974 -5.81102l0 0c1.5411987 0 3.019287 0.6122284 4.109009 1.7020111c1.0897827 1.0897675 1.7020264 2.5678253 1.7020264 4.109009l0 0c0 3.2093353 -2.6016846 5.81102 -5.811035 5.81102l0 0c-3.2092896 0 -5.810974 -2.6016846 -5.810974 -5.81102z" fill-rule="evenodd"></path><path fill="#000000" fill-opacity="0.0" d="m229.70078 137.82281l151.08661 0l0 0.06300354l151.08664 0" fill-rule="evenodd"></path><path stroke="#595959" stroke-width="1.0" stroke-linejoin="round" stroke-linecap="butt" d="m229.70078 137.82281l151.08661 0l0 0.06300354l151.08664 0" fill-rule="evenodd"></path><path fill="#eeeeee" d="m583.75854 122.74564l0 0c0 -4.1632385 3.374939 -7.538208 7.538208 -7.538208l128.98657 0c1.9992676 0 3.916626 0.7941971 5.3303223 2.2078857c1.4136963 1.4136887 2.2078857 3.3310623 2.2078857 5.3303223l0 30.151924c0 4.1632385 -3.375 7.538208 -7.538208 7.538208l-128.98657 0c-4.163269 0 -7.538208 -3.3749695 -7.538208 -7.538208z" fill-rule="evenodd"></path><path stroke="#595959" stroke-width="1.0" stroke-linejoin="round" stroke-linecap="butt" stroke-dasharray="4.0,3.0" d="m583.75854 122.74564l0 0c0 -4.1632385 3.374939 -7.538208 7.538208 -7.538208l128.98657 0c1.9992676 0 3.916626 0.7941971 5.3303223 2.2078857c1.4136963 1.4136887 2.2078857 3.3310623 2.2078857 5.3303223l0 30.151924c0 4.1632385 -3.375 7.538208 -7.538208 7.538208l-128.98657 0c-4.163269 0 -7.538208 -3.3749695 -7.538208 -7.538208z" fill-rule="evenodd"></path><path fill="#000000" d="m613.5384 133.74161l0 -12.0l-4.46875 0l0 -1.59375l10.765625 0l0 1.59375l-4.5 0l0 12.0l-1.796875 0zm14.47406 -3.171875l1.71875 0.21875q-0.40625 1.5 -1.515625 2.34375q-1.09375 0.828125 -2.8125 0.828125q-2.15625 0 -3.421875 -1.328125q-1.265625 -1.328125 -1.265625 -3.734375q0 -2.484375 1.265625 -3.859375q1.28125 -1.375 3.328125 -1.375q1.984375 0 3.234375 1.34375q1.25 1.34375 1.25 3.796875q0 0.140625 -0.015625 0.4375l-7.34375 0q0.09375 1.625 0.921875 2.484375q0.828125 0.859375 2.0625 0.859375q0.90625 0 1.546875 -0.46875q0.65625 -0.484375 1.046875 -1.546875zm-5.484375 -2.703125l5.5 0q-0.109375 -1.234375 -0.625 -1.859375q-0.796875 -0.96875 -2.078125 -0.96875q-1.140625 0 -1.9375 0.78125q-0.78125 0.765625 -0.859375 2.046875zm8.438232 2.9375l1.65625 -0.265625q0.140625 1.0 0.765625 1.53125q0.640625 0.515625 1.78125 0.515625q1.15625 0 1.703125 -0.46875q0.5625 -0.46875 0.5625 -1.09375q0 -0.5625 -0.484375 -0.890625q-0.34375 -0.21875 -1.703125 -0.5625q-1.84375 -0.46875 -2.5625 -0.796875q-0.703125 -0.34375 -1.078125 -0.9375q-0.359375 -0.609375 -0.359375 -1.328125q0 -0.65625 0.296875 -1.21875q0.3125 -0.5625 0.828125 -0.9375q0.390625 -0.28125 1.0625 -0.484375q0.671875 -0.203125 1.4375 -0.203125q1.171875 0 2.046875 0.34375q0.875 0.328125 1.28125 0.90625q0.421875 0.5625 0.578125 1.515625l-1.625 0.21875q-0.109375 -0.75 -0.65625 -1.171875q-0.53125 -0.4375 -1.5 -0.4375q-1.15625 0 -1.640625 0.390625q-0.484375 0.375 -0.484375 0.875q0 0.328125 0.203125 0.59375q0.203125 0.265625 0.640625 0.4375q0.25 0.09375 1.46875 0.4375q1.765625 0.46875 2.46875 0.765625q0.703125 0.296875 1.09375 0.875q0.40625 0.578125 0.40625 1.4375q0 0.828125 -0.484375 1.578125q-0.484375 0.734375 -1.40625 1.140625q-0.921875 0.390625 -2.078125 0.390625q-1.921875 0 -2.9375 -0.796875q-1.0 -0.796875 -1.28125 -2.359375zm13.65625 1.4375l0.234375 1.484375q-0.703125 0.140625 -1.265625 0.140625q-0.90625 0 -1.40625 -0.28125q-0.5 -0.296875 -0.703125 -0.75q-0.203125 -0.46875 -0.203125 -1.984375l0 -5.65625l-1.234375 0l0 -1.3125l1.234375 0l0 -2.4375l1.65625 -1.0l0 3.4375l1.6875 0l0 1.3125l-1.6875 0l0 5.75q0 0.71875 0.078125 0.921875q0.09375 0.203125 0.296875 0.328125q0.203125 0.125 0.578125 0.125q0.265625 0 0.734375 -0.078125zm6.960388 1.5l0 -13.59375l6.03125 0q1.8125 0 2.75 0.359375q0.953125 0.359375 1.515625 1.296875q0.5625 0.921875 0.5625 2.046875q0 1.453125 -0.9375 2.453125q-0.921875 0.984375 -2.890625 1.25q0.71875 0.34375 1.09375 0.671875q0.78125 0.734375 1.484375 1.8125l2.375 3.703125l-2.265625 0l-1.796875 -2.828125q-0.796875 -1.21875 -1.3125 -1.875q-0.5 -0.65625 -0.90625 -0.90625q-0.40625 -0.265625 -0.8125 -0.359375q-0.3125 -0.078125 -1.015625 -0.078125l-2.078125 0l0 6.046875l-1.796875 0zm1.796875 -7.59375l3.859375 0q1.234375 0 1.921875 -0.25q0.703125 -0.265625 1.0625 -0.828125q0.375 -0.5625 0.375 -1.21875q0 -0.96875 -0.703125 -1.578125q-0.703125 -0.625 -2.21875 -0.625l-4.296875 0l0 4.5zm18.176025 4.421875l1.71875 0.21875q-0.40625 1.5 -1.515625 2.34375q-1.09375 0.828125 -2.8125 0.828125q-2.15625 0 -3.421875 -1.328125q-1.265625 -1.328125 -1.265625 -3.734375q0 -2.484375 1.265625 -3.859375q1.28125 -1.375 3.328125 -1.375q1.984375 0 3.234375 1.34375q1.25 1.34375 1.25 3.796875q0 0.140625 -0.015625 0.4375l-7.34375 0q0.09375 1.625 0.921875 2.484375q0.828125 0.859375 2.0625 0.859375q0.90625 0 1.546875 -0.46875q0.65625 -0.484375 1.046875 -1.546875zm-5.484375 -2.703125l5.5 0q-0.109375 -1.234375 -0.625 -1.859375q-0.796875 -0.96875 -2.078125 -0.96875q-1.140625 0 -1.9375 0.78125q-0.78125 0.765625 -0.859375 2.046875zm8.438232 2.9375l1.65625 -0.265625q0.140625 1.0 0.765625 1.53125q0.640625 0.515625 1.78125 0.515625q1.15625 0 1.703125 -0.46875q0.5625 -0.46875 0.5625 -1.09375q0 -0.5625 -0.484375 -0.890625q-0.34375 -0.21875 -1.703125 -0.5625q-1.84375 -0.46875 -2.5625 -0.796875q-0.703125 -0.34375 -1.078125 -0.9375q-0.359375 -0.609375 -0.359375 -1.328125q0 -0.65625 0.296875 -1.21875q0.3125 -0.5625 0.828125 -0.9375q0.390625 -0.28125 1.0625 -0.484375q0.671875 -0.203125 1.4375 -0.203125q1.171875 0 2.046875 0.34375q0.875 0.328125 1.28125 0.90625q0.421875 0.5625 0.578125 1.515625l-1.625 0.21875q-0.109375 -0.75 -0.65625 -1.171875q-0.53125 -0.4375 -1.5 -0.4375q-1.15625 0 -1.640625 0.390625q-0.484375 0.375 -0.484375 0.875q0 0.328125 0.203125 0.59375q0.203125 0.265625 0.640625 0.4375q0.25 0.09375 1.46875 0.4375q1.765625 0.46875 2.46875 0.765625q0.703125 0.296875 1.09375 0.875q0.40625 0.578125 0.40625 1.4375q0 0.828125 -0.484375 1.578125q-0.484375 0.734375 -1.40625 1.140625q-0.921875 0.390625 -2.078125 0.390625q-1.921875 0 -2.9375 -0.796875q-1.0 -0.796875 -1.28125 -2.359375zm16.453125 2.9375l0 -1.453125q-1.140625 1.671875 -3.125 1.671875q-0.859375 0 -1.625 -0.328125q-0.75 -0.34375 -1.125 -0.84375q-0.359375 -0.5 -0.515625 -1.234375q-0.09375 -0.5 -0.09375 -1.5625l0 -6.109375l1.671875 0l0 5.46875q0 1.3125 0.09375 1.765625q0.15625 0.65625 0.671875 1.03125q0.515625 0.375 1.265625 0.375q0.75 0 1.40625 -0.375q0.65625 -0.390625 0.921875 -1.046875q0.28125 -0.671875 0.28125 -1.9375l0 -5.28125l1.671875 0l0 9.859375l-1.5 0zm3.8913574 0l0 -13.59375l1.671875 0l0 13.59375l-1.671875 0zm7.8323364 -1.5l0.234375 1.484375q-0.703125 0.140625 -1.265625 0.140625q-0.90625 0 -1.40625 -0.28125q-0.5 -0.296875 -0.703125 -0.75q-0.203125 -0.46875 -0.203125 -1.984375l0 -5.65625l-1.234375 0l0 -1.3125l1.234375 0l0 -2.4375l1.65625 -1.0l0 3.4375l1.6875 0l0 1.3125l-1.6875 0l0 5.75q0 0.71875 0.078125 0.921875q0.09375 0.203125 0.296875 0.328125q0.203125 0.125 0.578125 0.125q0.265625 0 0.734375 -0.078125z" fill-rule="nonzero"></path><path fill="#000000" d="m647.2784 159.74161q-1.375 -1.75 -2.328125 -4.078125q-0.953125 -2.34375 -0.953125 -4.84375q0 -2.21875 0.703125 -4.234375q0.84375 -2.34375 2.578125 -4.671875l1.203125 0q-1.125 1.921875 -1.484375 2.75q-0.5625 1.28125 -0.890625 2.671875q-0.40625 1.734375 -0.40625 3.484375q0 4.46875 2.78125 8.921875l-1.203125 0z" fill-rule="nonzero"></path><path fill="#000000" d="m649.94415 155.74161l2.84375 -13.59375l5.703125 0q1.703125 0 2.5625 0.28125q0.875 0.28125 1.375 1.0625q0.5 0.78125 0.5 1.96875q0 1.65625 -1.09375 2.75q-1.078125 1.09375 -3.5 1.421875q0.734375 0.546875 1.125 1.078125q0.84375 1.1875 1.359375 2.46875l1.046875 2.5625l-2.03125 0l-0.96875 -2.53125q-0.53125 -1.375 -1.21875 -2.375q-0.453125 -0.703125 -0.9375 -0.921875q-0.484375 -0.21875 -1.5625 -0.21875l-2.125 0l-1.265625 6.046875l-1.8125 0zm3.390625 -7.515625l2.515625 0q1.734375 0 2.265625 -0.046875q1.03125 -0.09375 1.6875 -0.453125q0.65625 -0.375 1.015625 -0.984375q0.375 -0.609375 0.375 -1.3125q0 -0.59375 -0.28125 -1.03125q-0.265625 -0.453125 -0.703125 -0.609375q-0.4375 -0.15625 -1.484375 -0.15625l-4.4375 0l-0.953125 4.59375z" fill-rule="nonzero"></path><path fill="#000000" d="m664.87024 159.74161l-1.1875 0q2.765625 -4.453125 2.765625 -8.921875q0 -1.734375 -0.390625 -3.453125q-0.328125 -1.390625 -0.890625 -2.671875q-0.359375 -0.84375 -1.484375 -2.78125l1.1875 0q1.75 2.328125 2.578125 4.671875q0.71875 2.015625 0.71875 4.234375q0 2.5 -0.96875 4.84375q-0.953125 2.328125 -2.328125 4.078125z" fill-rule="nonzero"></path><path fill="#000000" fill-opacity="0.0" d="m543.4951 137.82063l40.251953 0" fill-rule="evenodd"></path><path stroke="#595959" stroke-width="1.0" stroke-linejoin="round" stroke-linecap="butt" d="m543.4951 137.82063l34.251953 0" fill-rule="evenodd"></path><path fill="#595959" stroke="#595959" stroke-width="1.0" stroke-linecap="butt" d="m577.7471 139.47237l4.538086 -1.6517334l-4.538086 -1.6517334z" fill-rule="evenodd"></path><path fill="#eeeeee" d="m583.75854 284.60654l0 0c0 -4.1632385 3.374939 -7.538208 7.538208 -7.538208l128.98657 0c1.9992676 0 3.916626 0.79418945 5.3303223 2.2078857c1.4136963 1.4136963 2.2078857 3.3310547 2.2078857 5.3303223l0 30.151917c0 4.1632385 -3.375 7.538208 -7.538208 7.538208l-128.98657 0c-4.163269 0 -7.538208 -3.3749695 -7.538208 -7.538208z" fill-rule="evenodd"></path><path stroke="#595959" stroke-width="1.0" stroke-linejoin="round" stroke-linecap="butt" stroke-dasharray="4.0,3.0" d="m583.75854 284.60654l0 0c0 -4.1632385 3.374939 -7.538208 7.538208 -7.538208l128.98657 0c1.9992676 0 3.916626 0.79418945 5.3303223 2.2078857c1.4136963 1.4136963 2.2078857 3.3310547 2.2078857 5.3303223l0 30.151917c0 4.1632385 -3.375 7.538208 -7.538208 7.538208l-128.98657 0c-4.163269 0 -7.538208 -3.3749695 -7.538208 -7.538208z" fill-rule="evenodd"></path><path fill="#000000" d="m613.5384 295.6025l0 -12.0l-4.46875 0l0 -1.59375l10.765625 0l0 1.59375l-4.5 0l0 12.0l-1.796875 0zm14.47406 -3.171875l1.71875 0.21875q-0.40625 1.5 -1.515625 2.34375q-1.09375 0.828125 -2.8125 0.828125q-2.15625 0 -3.421875 -1.328125q-1.265625 -1.328125 -1.265625 -3.734375q0 -2.484375 1.265625 -3.859375q1.28125 -1.375 3.328125 -1.375q1.984375 0 3.234375 1.34375q1.25 1.34375 1.25 3.796875q0 0.140625 -0.015625 0.4375l-7.34375 0q0.09375 1.625 0.921875 2.484375q0.828125 0.859375 2.0625 0.859375q0.90625 0 1.546875 -0.46875q0.65625 -0.484375 1.046875 -1.546875zm-5.484375 -2.703125l5.5 0q-0.109375 -1.234375 -0.625 -1.859375q-0.796875 -0.96875 -2.078125 -0.96875q-1.140625 0 -1.9375 0.78125q-0.78125 0.765625 -0.859375 2.046875zm8.438232 2.9375l1.65625 -0.265625q0.140625 1.0 0.765625 1.53125q0.640625 0.515625 1.78125 0.515625q1.15625 0 1.703125 -0.46875q0.5625 -0.46875 0.5625 -1.09375q0 -0.5625 -0.484375 -0.890625q-0.34375 -0.21875 -1.703125 -0.5625q-1.84375 -0.46875 -2.5625 -0.796875q-0.703125 -0.34375 -1.078125 -0.9375q-0.359375 -0.609375 -0.359375 -1.328125q0 -0.65625 0.296875 -1.21875q0.3125 -0.5625 0.828125 -0.9375q0.390625 -0.28125 1.0625 -0.484375q0.671875 -0.203125 1.4375 -0.203125q1.171875 0 2.046875 0.34375q0.875 0.328125 1.28125 0.90625q0.421875 0.5625 0.578125 1.515625l-1.625 0.21875q-0.109375 -0.75 -0.65625 -1.171875q-0.53125 -0.4375 -1.5 -0.4375q-1.15625 0 -1.640625 0.390625q-0.484375 0.375 -0.484375 0.875q0 0.328125 0.203125 0.59375q0.203125 0.265625 0.640625 0.4375q0.25 0.09375 1.46875 0.4375q1.765625 0.46875 2.46875 0.765625q0.703125 0.296875 1.09375 0.875q0.40625 0.578125 0.40625 1.4375q0 0.828125 -0.484375 1.578125q-0.484375 0.734375 -1.40625 1.140625q-0.921875 0.390625 -2.078125 0.390625q-1.921875 0 -2.9375 -0.796875q-1.0 -0.796875 -1.28125 -2.359375zm13.65625 1.4375l0.234375 1.484375q-0.703125 0.140625 -1.265625 0.140625q-0.90625 0 -1.40625 -0.28125q-0.5 -0.296875 -0.703125 -0.75q-0.203125 -0.46875 -0.203125 -1.984375l0 -5.65625l-1.234375 0l0 -1.3125l1.234375 0l0 -2.4375l1.65625 -1.0l0 3.4375l1.6875 0l0 1.3125l-1.6875 0l0 5.75q0 0.71875 0.078125 0.921875q0.09375 0.203125 0.296875 0.328125q0.203125 0.125 0.578125 0.125q0.265625 0 0.734375 -0.078125zm6.960388 1.5l0 -13.59375l6.03125 0q1.8125 0 2.75 0.359375q0.953125 0.359375 1.515625 1.296875q0.5625 0.921875 0.5625 2.046875q0 1.453125 -0.9375 2.453125q-0.921875 0.984375 -2.890625 1.25q0.71875 0.34375 1.09375 0.671875q0.78125 0.734375 1.484375 1.8125l2.375 3.703125l-2.265625 0l-1.796875 -2.828125q-0.796875 -1.21875 -1.3125 -1.875q-0.5 -0.65625 -0.90625 -0.90625q-0.40625 -0.265625 -0.8125 -0.359375q-0.3125 -0.078125 -1.015625 -0.078125l-2.078125 0l0 6.046875l-1.796875 0zm1.796875 -7.59375l3.859375 0q1.234375 0 1.921875 -0.25q0.703125 -0.265625 1.0625 -0.828125q0.375 -0.5625 0.375 -1.21875q0 -0.96875 -0.703125 -1.578125q-0.703125 -0.625 -2.21875 -0.625l-4.296875 0l0 4.5zm18.176025 4.421875l1.71875 0.21875q-0.40625 1.5 -1.515625 2.34375q-1.09375 0.828125 -2.8125 0.828125q-2.15625 0 -3.421875 -1.328125q-1.265625 -1.328125 -1.265625 -3.734375q0 -2.484375 1.265625 -3.859375q1.28125 -1.375 3.328125 -1.375q1.984375 0 3.234375 1.34375q1.25 1.34375 1.25 3.796875q0 0.140625 -0.015625 0.4375l-7.34375 0q0.09375 1.625 0.921875 2.484375q0.828125 0.859375 2.0625 0.859375q0.90625 0 1.546875 -0.46875q0.65625 -0.484375 1.046875 -1.546875zm-5.484375 -2.703125l5.5 0q-0.109375 -1.234375 -0.625 -1.859375q-0.796875 -0.96875 -2.078125 -0.96875q-1.140625 0 -1.9375 0.78125q-0.78125 0.765625 -0.859375 2.046875zm8.438232 2.9375l1.65625 -0.265625q0.140625 1.0 0.765625 1.53125q0.640625 0.515625 1.78125 0.515625q1.15625 0 1.703125 -0.46875q0.5625 -0.46875 0.5625 -1.09375q0 -0.5625 -0.484375 -0.890625q-0.34375 -0.21875 -1.703125 -0.5625q-1.84375 -0.46875 -2.5625 -0.796875q-0.703125 -0.34375 -1.078125 -0.9375q-0.359375 -0.609375 -0.359375 -1.328125q0 -0.65625 0.296875 -1.21875q0.3125 -0.5625 0.828125 -0.9375q0.390625 -0.28125 1.0625 -0.484375q0.671875 -0.203125 1.4375 -0.203125q1.171875 0 2.046875 0.34375q0.875 0.328125 1.28125 0.90625q0.421875 0.5625 0.578125 1.515625l-1.625 0.21875q-0.109375 -0.75 -0.65625 -1.171875q-0.53125 -0.4375 -1.5 -0.4375q-1.15625 0 -1.640625 0.390625q-0.484375 0.375 -0.484375 0.875q0 0.328125 0.203125 0.59375q0.203125 0.265625 0.640625 0.4375q0.25 0.09375 1.46875 0.4375q1.765625 0.46875 2.46875 0.765625q0.703125 0.296875 1.09375 0.875q0.40625 0.578125 0.40625 1.4375q0 0.828125 -0.484375 1.578125q-0.484375 0.734375 -1.40625 1.140625q-0.921875 0.390625 -2.078125 0.390625q-1.921875 0 -2.9375 -0.796875q-1.0 -0.796875 -1.28125 -2.359375zm16.453125 2.9375l0 -1.453125q-1.140625 1.671875 -3.125 1.671875q-0.859375 0 -1.625 -0.328125q-0.75 -0.34375 -1.125 -0.84375q-0.359375 -0.5 -0.515625 -1.234375q-0.09375 -0.5 -0.09375 -1.5625l0 -6.109375l1.671875 0l0 5.46875q0 1.3125 0.09375 1.765625q0.15625 0.65625 0.671875 1.03125q0.515625 0.375 1.265625 0.375q0.75 0 1.40625 -0.375q0.65625 -0.390625 0.921875 -1.046875q0.28125 -0.671875 0.28125 -1.9375l0 -5.28125l1.671875 0l0 9.859375l-1.5 0zm3.8913574 0l0 -13.59375l1.671875 0l0 13.59375l-1.671875 0zm7.8323364 -1.5l0.234375 1.484375q-0.703125 0.140625 -1.265625 0.140625q-0.90625 0 -1.40625 -0.28125q-0.5 -0.296875 -0.703125 -0.75q-0.203125 -0.46875 -0.203125 -1.984375l0 -5.65625l-1.234375 0l0 -1.3125l1.234375 0l0 -2.4375l1.65625 -1.0l0 3.4375l1.6875 0l0 1.3125l-1.6875 0l0 5.75q0 0.71875 0.078125 0.921875q0.09375 0.203125 0.296875 0.328125q0.203125 0.125 0.578125 0.125q0.265625 0 0.734375 -0.078125z" fill-rule="nonzero"></path><path fill="#000000" d="m645.20593 321.6025q-1.375 -1.75 -2.328125 -4.078125q-0.953125 -2.34375 -0.953125 -4.84375q0 -2.21875 0.703125 -4.234375q0.84375 -2.34375 2.578125 -4.671875l1.203125 0q-1.125 1.921875 -1.484375 2.75q-0.5625 1.28125 -0.890625 2.671875q-0.40625 1.734375 -0.40625 3.484375q0 4.46875 2.78125 8.921875l-1.203125 0z" fill-rule="nonzero"></path><path fill="#000000" d="m647.87177 317.6025l2.84375 -13.59375l5.703125 0q1.703125 0 2.5625 0.28125q0.875 0.28125 1.375 1.0625q0.5 0.78125 0.5 1.96875q0 1.65625 -1.09375 2.75q-1.078125 1.09375 -3.5 1.421875q0.734375 0.546875 1.125 1.078125q0.84375 1.1875 1.359375 2.46875l1.046875 2.5625l-2.03125 0l-0.96875 -2.53125q-0.53125 -1.375 -1.21875 -2.375q-0.453125 -0.703125 -0.9375 -0.921875q-0.484375 -0.21875 -1.5625 -0.21875l-2.125 0l-1.265625 6.046875l-1.8125 0zm3.390625 -7.515625l2.515625 0q1.734375 0 2.265625 -0.046875q1.03125 -0.09375 1.6875 -0.453125q0.65625 -0.375 1.015625 -0.984375q0.375 -0.609375 0.375 -1.3125q0 -0.59375 -0.28125 -1.03125q-0.265625 -0.453125 -0.703125 -0.609375q-0.4375 -0.15625 -1.484375 -0.15625l-4.4375 0l-0.953125 4.59375zm12.144836 -4.125l0.390625 -1.90625l1.921875 0l-0.34375 1.671875q-0.3125 1.5 -0.984375 2.1875q-0.65625 0.6875 -1.5625 0.796875l0.15625 -0.734375q1.09375 -0.296875 1.453125 -2.015625l-1.03125 0z" fill-rule="nonzero"></path><path fill="#000000" d="m666.9426 321.6025l-1.1875 0q2.765625 -4.453125 2.765625 -8.921875q0 -1.734375 -0.390625 -3.453125q-0.328125 -1.390625 -0.890625 -2.671875q-0.359375 -0.84375 -1.484375 -2.78125l1.1875 0q1.75 2.328125 2.578125 4.671875q0.71875 2.015625 0.71875 4.234375q0 2.5 -0.96875 4.84375q-0.953125 2.328125 -2.328125 4.078125z" fill-rule="nonzero"></path><path fill="#000000" fill-opacity="0.0" d="m525.0801 196.93176l130.70862 0l0 37.889755l-130.70862 0z" fill-rule="evenodd"></path><path fill="#000000" d="m591.00745 218.24489l1.390625 0.1875q-0.234375 1.421875 -1.171875 2.234375q-0.921875 0.8125 -2.28125 0.8125q-1.703125 0 -2.75 -1.109375q-1.03125 -1.125 -1.03125 -3.203125q0 -1.34375 0.4375 -2.34375q0.453125 -1.015625 1.359375 -1.515625q0.921875 -0.5 1.984375 -0.5q1.359375 0 2.21875 0.6875q0.859375 0.671875 1.09375 1.9375l-1.359375 0.203125q-0.203125 -0.828125 -0.703125 -1.25q-0.484375 -0.421875 -1.1875 -0.421875q-1.0625 0 -1.734375 0.765625q-0.65625 0.75 -0.65625 2.40625q0 1.671875 0.640625 2.4375q0.640625 0.75 1.671875 0.75q0.828125 0 1.375 -0.5q0.5625 -0.515625 0.703125 -1.578125zm2.0625 -1.109375q0 -2.296875 1.28125 -3.40625q1.078125 -0.921875 2.609375 -0.921875q1.71875 0 2.796875 1.125q1.09375 1.109375 1.09375 3.09375q0 1.59375 -0.484375 2.515625q-0.484375 0.921875 -1.40625 1.4375q-0.90625 0.5 -2.0 0.5q-1.734375 0 -2.8125 -1.109375q-1.078125 -1.125 -1.078125 -3.234375zm1.453125 0q0 1.59375 0.6875 2.390625q0.703125 0.796875 1.75 0.796875q1.046875 0 1.734375 -0.796875q0.703125 -0.796875 0.703125 -2.4375q0 -1.53125 -0.703125 -2.328125q-0.6875 -0.796875 -1.734375 -0.796875q-1.046875 0 -1.75 0.796875q-0.6875 0.78125 -0.6875 2.375zm7.9765625 4.15625l0 -8.296875l1.25 0l0 1.15625q0.390625 -0.609375 1.03125 -0.96875q0.65625 -0.375 1.484375 -0.375q0.921875 0 1.515625 0.390625q0.59375 0.375 0.828125 1.0625q0.984375 -1.453125 2.5625 -1.453125q1.234375 0 1.890625 0.6875q0.671875 0.671875 0.671875 2.09375l0 5.703125l-1.390625 0l0 -5.234375q0 -0.84375 -0.140625 -1.203125q-0.140625 -0.375 -0.5 -0.59375q-0.359375 -0.234375 -0.84375 -0.234375q-0.875 0 -1.453125 0.578125q-0.578125 0.578125 -0.578125 1.859375l0 4.828125l-1.40625 0l0 -5.390625q0 -0.9375 -0.34375 -1.40625q-0.34375 -0.46875 -1.125 -0.46875q-0.59375 0 -1.09375 0.3125q-0.5 0.3125 -0.734375 0.921875q-0.21875 0.59375 -0.21875 1.71875l0 4.3125l-1.40625 0zm13.328125 3.1875l0 -11.484375l1.28125 0l0 1.078125q0.453125 -0.640625 1.015625 -0.953125q0.578125 -0.3125 1.390625 -0.3125q1.0625 0 1.875 0.546875q0.8125 0.546875 1.21875 1.546875q0.421875 0.984375 0.421875 2.171875q0 1.28125 -0.46875 2.296875q-0.453125 1.015625 -1.328125 1.5625q-0.859375 0.546875 -1.828125 0.546875q-0.703125 0 -1.265625 -0.296875q-0.546875 -0.296875 -0.90625 -0.75l0 4.046875l-1.40625 0zm1.265625 -7.296875q0 1.609375 0.640625 2.375q0.65625 0.765625 1.578125 0.765625q0.9375 0 1.609375 -0.796875q0.671875 -0.796875 0.671875 -2.453125q0 -1.59375 -0.65625 -2.375q-0.65625 -0.796875 -1.5625 -0.796875q-0.890625 0 -1.59375 0.84375q-0.6875 0.84375 -0.6875 2.4375zm13.0390625 3.078125q-0.78125 0.671875 -1.5 0.953125q-0.71875 0.265625 -1.546875 0.265625q-1.375 0 -2.109375 -0.671875q-0.734375 -0.671875 -0.734375 -1.703125q0 -0.609375 0.28125 -1.109375q0.28125 -0.515625 0.71875 -0.8125q0.453125 -0.3125 1.015625 -0.46875q0.421875 -0.109375 1.25 -0.203125q1.703125 -0.203125 2.515625 -0.484375q0 -0.296875 0 -0.375q0 -0.859375 -0.390625 -1.203125q-0.546875 -0.484375 -1.609375 -0.484375q-0.984375 0 -1.46875 0.359375q-0.46875 0.34375 -0.6875 1.21875l-1.375 -0.1875q0.1875 -0.875 0.609375 -1.421875q0.4375 -0.546875 1.25 -0.828125q0.8125 -0.296875 1.875 -0.296875q1.0625 0 1.71875 0.25q0.671875 0.25 0.984375 0.625q0.3125 0.375 0.4375 0.953125q0.078125 0.359375 0.078125 1.296875l0 1.875q0 1.96875 0.078125 2.484375q0.09375 0.515625 0.359375 1.0l-1.46875 0q-0.21875 -0.4375 -0.28125 -1.03125zm-0.109375 -3.140625q-0.765625 0.3125 -2.296875 0.53125q-0.875 0.125 -1.234375 0.28125q-0.359375 0.15625 -0.5625 0.46875q-0.1875 0.296875 -0.1875 0.65625q0 0.5625 0.421875 0.9375q0.4375 0.375 1.25 0.375q0.8125 0 1.4375 -0.34375q0.640625 -0.359375 0.9375 -0.984375q0.234375 -0.46875 0.234375 -1.40625l0 -0.515625zm3.5859375 4.171875l0 -8.296875l1.265625 0l0 1.25q0.484375 -0.875 0.890625 -1.15625q0.40625 -0.28125 0.90625 -0.28125q0.703125 0 1.4375 0.453125l-0.484375 1.296875q-0.515625 -0.296875 -1.03125 -0.296875q-0.453125 0 -0.828125 0.28125q-0.359375 0.265625 -0.515625 0.765625q-0.234375 0.75 -0.234375 1.640625l0 4.34375l-1.40625 0zm11.015625 -2.671875l1.453125 0.171875q-0.34375 1.28125 -1.28125 1.984375q-0.921875 0.703125 -2.359375 0.703125q-1.828125 0 -2.890625 -1.125q-1.0625 -1.125 -1.0625 -3.140625q0 -2.09375 1.078125 -3.25q1.078125 -1.15625 2.796875 -1.15625q1.65625 0 2.703125 1.140625q1.0625 1.125 1.0625 3.171875q0 0.125 0 0.375l-6.1875 0q0.078125 1.375 0.765625 2.109375q0.703125 0.71875 1.734375 0.71875q0.78125 0 1.328125 -0.40625q0.546875 -0.40625 0.859375 -1.296875zm-4.609375 -2.28125l4.625 0q-0.09375 -1.046875 -0.53125 -1.5625q-0.671875 -0.8125 -1.734375 -0.8125q-0.96875 0 -1.640625 0.65625q-0.65625 0.640625 -0.71875 1.71875z" fill-rule="nonzero"></path><path fill="#000000" fill-opacity="0.0" d="m470.455 205.04253l67.24411 0l0 -61.417313" fill-rule="evenodd"></path><path stroke="#595959" stroke-width="1.0" stroke-linejoin="round" stroke-linecap="butt" d="m470.45502 205.04253l67.24408 0l0 -55.417328" fill-rule="evenodd"></path><path fill="#595959" stroke="#595959" stroke-width="1.0" stroke-linecap="butt" d="m539.3508 149.6252l-1.6517334 -4.538086l-1.6517334 4.538086z" fill-rule="evenodd"></path><path fill="#000000" fill-opacity="0.0" d="m470.455 205.04253l67.212616 0l0 88.81889" fill-rule="evenodd"></path><path stroke="#595959" stroke-width="1.0" stroke-linejoin="round" stroke-linecap="butt" d="m470.45502 205.04253l67.212585 0l0 82.81889" fill-rule="evenodd"></path><path fill="#595959" stroke="#595959" stroke-width="1.0" stroke-linecap="butt" d="m536.01587 287.86142l1.6517334 4.5381165l1.6517334 -4.5381165z" fill-rule="evenodd"></path><path fill="#eeeeee" d="m649.9781 215.63428l0 0c0 -3.2093353 2.6016846 -5.81102 5.811035 -5.81102l0 0c1.5411377 0 3.019226 0.6122284 4.109009 1.7020111c1.0897827 1.0897675 1.7019653 2.5678253 1.7019653 4.109009l0 0c0 3.2093353 -2.6016846 5.81102 -5.810974 5.81102l0 0c-3.2093506 0 -5.811035 -2.6016846 -5.811035 -5.81102z" fill-rule="evenodd"></path><path stroke="#595959" stroke-width="1.0" stroke-linejoin="round" stroke-linecap="butt" d="m649.9781 215.63428l0 0c0 -3.2093353 2.6016846 -5.81102 5.811035 -5.81102l0 0c1.5411377 0 3.019226 0.6122284 4.109009 1.7020111c1.0897827 1.0897675 1.7019653 2.5678253 1.7019653 4.109009l0 0c0 3.2093353 -2.6016846 5.81102 -5.810974 5.81102l0 0c-3.2093506 0 -5.811035 -2.6016846 -5.811035 -5.81102z" fill-rule="evenodd"></path><path fill="#000000" fill-opacity="0.0" d="m655.7891 221.4453l0 55.622055" fill-rule="evenodd"></path><path stroke="#595959" stroke-width="1.0" stroke-linejoin="round" stroke-linecap="butt" d="m655.78906 227.44531l0 49.62204" fill-rule="evenodd"></path><path fill="#595959" stroke="#595959" stroke-width="1.0" stroke-linecap="butt" d="m657.4408 227.44531l-1.6517334 -4.538101l-1.6517334 4.538101z" fill-rule="evenodd"></path><path fill="#000000" fill-opacity="0.0" d="m655.79004 160.43578l0 49.385834" fill-rule="evenodd"></path><path stroke="#595959" stroke-width="1.0" stroke-linejoin="round" stroke-linecap="butt" d="m655.79004 160.43578l0 43.385834" fill-rule="evenodd"></path><path fill="#595959" stroke="#595959" stroke-width="1.0" stroke-linecap="butt" d="m654.1383 203.82161l1.6517334 4.538086l1.6517334 -4.538086z" fill-rule="evenodd"></path><path fill="#eeeeee" d="m751.8609 200.5593l0 0c0 -4.1632385 3.374939 -7.538208 7.538208 -7.538208l128.98657 0c1.9992676 0 3.916626 0.7942047 5.3303223 2.2078857c1.4136963 1.413681 2.2078857 3.3310547 2.2078857 5.3303223l0 30.151932c0 4.1632385 -3.375 7.538208 -7.538208 7.538208l-128.98657 0c-4.163269 0 -7.538208 -3.3749695 -7.538208 -7.538208z" fill-rule="evenodd"></path><path stroke="#595959" stroke-width="1.0" stroke-linejoin="round" stroke-linecap="butt" stroke-dasharray="4.0,3.0" d="m751.8609 200.5593l0 0c0 -4.1632385 3.374939 -7.538208 7.538208 -7.538208l128.98657 0c1.9992676 0 3.916626 0.7942047 5.3303223 2.2078857c1.4136963 1.413681 2.2078857 3.3310547 2.2078857 5.3303223l0 30.151932c0 4.1632385 -3.375 7.538208 -7.538208 7.538208l-128.98657 0c-4.163269 0 -7.538208 -3.3749695 -7.538208 -7.538208z" fill-rule="evenodd"></path><path fill="#000000" d="m767.8696 222.55525l5.234375 -13.59375l1.9375 0l5.5625 13.59375l-2.046875 0l-1.59375 -4.125l-5.6875 0l-1.484375 4.125l-1.921875 0zm3.921875 -5.578125l4.609375 0l-1.40625 -3.78125q-0.65625 -1.703125 -0.96875 -2.8125q-0.265625 1.3125 -0.734375 2.59375l-1.5 4.0zm9.7716675 5.578125l0 -13.59375l1.671875 0l0 13.59375l-1.671875 0zm4.1917114 -11.6875l0 -1.90625l1.671875 0l0 1.90625l-1.671875 0zm0 11.6875l0 -9.859375l1.671875 0l0 9.859375l-1.671875 0zm6.8635864 0l-3.75 -9.859375l1.765625 0l2.125 5.90625q0.34375 0.953125 0.625 1.984375q0.21875 -0.78125 0.625 -1.875l2.1875 -6.015625l1.71875 0l-3.734375 9.859375l-1.5625 0zm13.34375 -3.171875l1.71875 0.21875q-0.40625 1.5 -1.515625 2.34375q-1.09375 0.828125 -2.8125 0.828125q-2.15625 0 -3.421875 -1.328125q-1.265625 -1.328125 -1.265625 -3.734375q0 -2.484375 1.265625 -3.859375q1.28125 -1.375 3.328125 -1.375q1.984375 0 3.234375 1.34375q1.25 1.34375 1.25 3.796875q0 0.140625 -0.015625 0.4375l-7.34375 0q0.09375 1.625 0.921875 2.484375q0.828125 0.859375 2.0625 0.859375q0.90625 0 1.546875 -0.46875q0.65625 -0.484375 1.046875 -1.546875zm-5.484375 -2.703125l5.5 0q-0.109375 -1.234375 -0.625 -1.859375q-0.796875 -0.96875 -2.078125 -0.96875q-1.140625 0 -1.9375 0.78125q-0.78125 0.765625 -0.859375 2.046875zm14.449646 5.875l0 -13.59375l2.71875 0l3.21875 9.625q0.4375 1.34375 0.640625 2.015625q0.234375 -0.75 0.734375 -2.1875l3.25 -9.453125l2.421875 0l0 13.59375l-1.734375 0l0 -11.390625l-3.953125 11.390625l-1.625 0l-3.9375 -11.578125l0 11.578125l-1.734375 0zm21.837646 0l0 -1.453125q-1.140625 1.671875 -3.125 1.671875q-0.859375 0 -1.625 -0.328125q-0.75 -0.34375 -1.125 -0.84375q-0.359375 -0.5 -0.515625 -1.234375q-0.09375 -0.5 -0.09375 -1.5625l0 -6.109375l1.671875 0l0 5.46875q0 1.3125 0.09375 1.765625q0.15625 0.65625 0.671875 1.03125q0.515625 0.375 1.265625 0.375q0.75 0 1.40625 -0.375q0.65625 -0.390625 0.921875 -1.046875q0.28125 -0.671875 0.28125 -1.9375l0 -5.28125l1.671875 0l0 9.859375l-1.5 0zm7.5788574 -1.5l0.234375 1.484375q-0.703125 0.140625 -1.265625 0.140625q-0.90625 0 -1.40625 -0.28125q-0.5 -0.296875 -0.703125 -0.75q-0.203125 -0.46875 -0.203125 -1.984375l0 -5.65625l-1.234375 0l0 -1.3125l1.234375 0l0 -2.4375l1.65625 -1.0l0 3.4375l1.6875 0l0 1.3125l-1.6875 0l0 5.75q0 0.71875 0.078125 0.921875q0.09375 0.203125 0.296875 0.328125q0.203125 0.125 0.578125 0.125q0.265625 0 0.734375 -0.078125zm7.9645386 0.28125q-0.9375 0.796875 -1.796875 1.125q-0.859375 0.3125 -1.84375 0.3125q-1.609375 0 -2.484375 -0.78125q-0.875 -0.796875 -0.875 -2.03125q0 -0.734375 0.328125 -1.328125q0.328125 -0.59375 0.859375 -0.953125q0.53125 -0.359375 1.203125 -0.546875q0.5 -0.140625 1.484375 -0.25q2.03125 -0.25 2.984375 -0.578125q0 -0.34375 0 -0.4375q0 -1.015625 -0.46875 -1.4375q-0.640625 -0.5625 -1.90625 -0.5625q-1.171875 0 -1.734375 0.40625q-0.5625 0.40625 -0.828125 1.46875l-1.640625 -0.234375q0.234375 -1.046875 0.734375 -1.6875q0.515625 -0.640625 1.46875 -0.984375q0.96875 -0.359375 2.25 -0.359375q1.265625 0 2.046875 0.296875q0.78125 0.296875 1.15625 0.75q0.375 0.453125 0.515625 1.140625q0.09375 0.421875 0.09375 1.53125l0 2.234375q0 2.328125 0.09375 2.953125q0.109375 0.609375 0.4375 1.171875l-1.75 0q-0.265625 -0.515625 -0.328125 -1.21875zm-0.140625 -3.71875q-0.90625 0.359375 -2.734375 0.625q-1.03125 0.140625 -1.453125 0.328125q-0.421875 0.1875 -0.65625 0.546875q-0.234375 0.359375 -0.234375 0.796875q0 0.671875 0.5 1.125q0.515625 0.4375 1.484375 0.4375q0.96875 0 1.71875 -0.421875q0.75 -0.4375 1.109375 -1.15625q0.265625 -0.578125 0.265625 -1.671875l0 -0.609375zm4.0788574 4.9375l0 -9.859375l1.5 0l0 1.40625q1.09375 -1.625 3.140625 -1.625q0.890625 0 1.640625 0.328125q0.75 0.3125 1.109375 0.84375q0.375 0.515625 0.53125 1.21875q0.09375 0.46875 0.09375 1.625l0 6.0625l-1.671875 0l0 -6.0q0 -1.015625 -0.203125 -1.515625q-0.1875 -0.515625 -0.6875 -0.8125q-0.5 -0.296875 -1.171875 -0.296875q-1.0625 0 -1.84375 0.671875q-0.765625 0.671875 -0.765625 2.578125l0 5.375l-1.671875 0zm14.031982 -1.5l0.234375 1.484375q-0.703125 0.140625 -1.265625 0.140625q-0.90625 0 -1.40625 -0.28125q-0.5 -0.296875 -0.703125 -0.75q-0.203125 -0.46875 -0.203125 -1.984375l0 -5.65625l-1.234375 0l0 -1.3125l1.234375 0l0 -2.4375l1.65625 -1.0l0 3.4375l1.6875 0l0 1.3125l-1.6875 0l0 5.75q0 0.71875 0.078125 0.921875q0.09375 0.203125 0.296875 0.328125q0.203125 0.125 0.578125 0.125q0.265625 0 0.734375 -0.078125zm0.8551636 -1.4375l1.65625 -0.265625q0.140625 1.0 0.765625 1.53125q0.640625 0.515625 1.78125 0.515625q1.15625 0 1.703125 -0.46875q0.5625 -0.46875 0.5625 -1.09375q0 -0.5625 -0.484375 -0.890625q-0.34375 -0.21875 -1.703125 -0.5625q-1.84375 -0.46875 -2.5625 -0.796875q-0.703125 -0.34375 -1.078125 -0.9375q-0.359375 -0.609375 -0.359375 -1.328125q0 -0.65625 0.296875 -1.21875q0.3125 -0.5625 0.828125 -0.9375q0.390625 -0.28125 1.0625 -0.484375q0.671875 -0.203125 1.4375 -0.203125q1.171875 0 2.046875 0.34375q0.875 0.328125 1.28125 0.90625q0.421875 0.5625 0.578125 1.515625l-1.625 0.21875q-0.109375 -0.75 -0.65625 -1.171875q-0.53125 -0.4375 -1.5 -0.4375q-1.15625 0 -1.640625 0.390625q-0.484375 0.375 -0.484375 0.875q0 0.328125 0.203125 0.59375q0.203125 0.265625 0.640625 0.4375q0.25 0.09375 1.46875 0.4375q1.765625 0.46875 2.46875 0.765625q0.703125 0.296875 1.09375 0.875q0.40625 0.578125 0.40625 1.4375q0 0.828125 -0.484375 1.578125q-0.484375 0.734375 -1.40625 1.140625q-0.921875 0.390625 -2.078125 0.390625q-1.921875 0 -2.9375 -0.796875q-1.0 -0.796875 -1.28125 -2.359375z" fill-rule="nonzero"></path><path fill="#000000" fill-opacity="0.0" d="m661.6001 215.63428l90.26776 0" fill-rule="evenodd"></path><path stroke="#595959" stroke-width="1.0" stroke-linejoin="round" stroke-linecap="butt" d="m661.6001 215.6343l84.26776 0" fill-rule="evenodd"></path><path fill="#595959" stroke="#595959" stroke-width="1.0" stroke-linecap="butt" d="m745.86786 217.28603l4.538086 -1.6517334l-4.538086 -1.6517334z" fill-rule="evenodd"></path><path fill="#000000" fill-opacity="0.0" d="m400.42386 327.10104l0 24.999817l423.46457 0l0 -113.85022" fill-rule="evenodd"></path><path stroke="#595959" stroke-width="1.0" stroke-linejoin="round" stroke-linecap="butt" d="m400.4239 327.10104l0 24.999847l423.46454 0l0 -107.85025" fill-rule="evenodd"></path><path fill="#595959" stroke="#595959" stroke-width="1.0" stroke-linecap="butt" d="m825.54016 244.25064l-1.6517334 -4.538101l-1.6517334 4.538101z" fill-rule="evenodd"></path></g></svg>

