<?xml version="1.0" standalone="yes"?>

<svg version="1.1" viewBox="0.0 0.0 960.0 540.0" fill="none" stroke="none" stroke-linecap="square" stroke-miterlimit="10" xmlns="http://www.w3.org/2000/svg" xmlns:xlink="http://www.w3.org/1999/xlink"><clipPath id="g22db3210c8_0_0.0"><path d="m0 0l960.0 0l0 540.0l-960.0 0l0 -540.0z" clip-rule="nonzero"></path></clipPath><g clip-path="url(#g22db3210c8_0_0.0)"><path fill="#ffffff" d="m0 0l960.0 0l0 540.0l-960.0 0z" fill-rule="evenodd"></path><path fill="#eeeeee" d="m35.931828 262.0609l36.85039 0l0 42.393707l-36.85039 0z" fill-rule="evenodd"></path><path stroke="#595959" stroke-width="1.0" stroke-linejoin="round" stroke-linecap="butt" d="m35.931828 262.0609l36.85039 0l0 42.393707l-36.85039 0z" fill-rule="evenodd"></path><path fill="#000000" d="m49.950417 283.47464q0 -2.421875 0.5 -3.890625q0.5 -1.46875 1.46875 -2.265625q0.984375 -0.796875 2.46875 -0.796875q1.09375 0 1.921875 0.4375q0.828125 0.4375 1.359375 1.28125q0.546875 0.828125 0.84375 2.015625q0.3125 1.1875 0.3125 3.21875q0 2.390625 -0.5 3.859375q-0.484375 1.46875 -1.46875 2.28125q-0.96875 0.796875 -2.46875 0.796875q-1.96875 0 -3.078125 -1.40625q-1.359375 -1.703125 -1.359375 -5.53125zm1.71875 0q0 3.34375 0.78125 4.453125q0.796875 1.109375 1.9375 1.109375q1.15625 0 1.9375 -1.109375q0.78125 -1.125 0.78125 -4.453125q0 -3.359375 -0.78125 -4.46875q-0.78125 -1.109375 -1.953125 -1.109375q-1.15625 0 -1.828125 0.984375q-0.875 1.234375 -0.875 4.59375z" fill-rule="nonzero"></path><path fill="#eeeeee" d="m73.46084 262.0609l36.850395 0l0 42.393707l-36.850395 0z" fill-rule="evenodd"></path><path stroke="#595959" stroke-width="1.0" stroke-linejoin="round" stroke-linecap="butt" d="m73.46084 262.0609l36.850395 0l0 42.393707l-36.850395 0z" fill-rule="evenodd"></path><path fill="#000000" d="m87.47942 283.47464q0 -2.421875 0.5 -3.890625q0.5 -1.46875 1.46875 -2.265625q0.984375 -0.796875 2.46875 -0.796875q1.09375 0 1.921875 0.4375q0.828125 0.4375 1.359375 1.28125q0.546875 0.828125 0.84375 2.015625q0.3125 1.1875 0.3125 3.21875q0 2.390625 -0.5 3.859375q-0.484375 1.46875 -1.46875 2.28125q-0.96875 0.796875 -2.46875 0.796875q-1.96875 0 -3.078125 -1.40625q-1.359375 -1.703125 -1.359375 -5.53125zm1.71875 0q0 3.34375 0.78125 4.453125q0.796875 1.109375 1.9375 1.109375q1.15625 0 1.9375 -1.109375q0.78125 -1.125 0.78125 -4.453125q0 -3.359375 -0.78125 -4.46875q-0.78125 -1.109375 -1.953125 -1.109375q-1.15625 0 -1.828125 0.984375q-0.875 1.234375 -0.875 4.59375z" fill-rule="nonzero"></path><path fill="#eeeeee" d="m109.77483 262.0609l36.850395 0l0 42.393707l-36.850395 0z" fill-rule="evenodd"></path><path stroke="#595959" stroke-width="1.0" stroke-linejoin="round" stroke-linecap="butt" d="m109.77483 262.0609l36.850395 0l0 42.393707l-36.850395 0z" fill-rule="evenodd"></path><path fill="#000000" d="m123.79342 283.47464q0 -2.421875 0.5 -3.890625q0.5 -1.46875 1.46875 -2.265625q0.984375 -0.796875 2.4687576 -0.796875q1.09375 0 1.921875 0.4375q0.828125 0.4375 1.359375 1.28125q0.546875 0.828125 0.84375 2.015625q0.3125 1.1875 0.3125 3.21875q0 2.390625 -0.5 3.859375q-0.484375 1.46875 -1.46875 2.28125q-0.96875 0.796875 -2.46875 0.796875q-1.9687576 0 -3.0781326 -1.40625q-1.359375 -1.703125 -1.359375 -5.53125zm1.71875 0q0 3.34375 0.78125 4.453125q0.796875 1.109375 1.9375076 1.109375q1.15625 0 1.9375 -1.109375q0.78125 -1.125 0.78125 -4.453125q0 -3.359375 -0.78125 -4.46875q-0.78125 -1.109375 -1.953125 -1.109375q-1.1562576 0 -1.8281326 0.984375q-0.875 1.234375 -0.875 4.59375z" fill-rule="nonzero"></path><path fill="#000000" fill-opacity="0.0" d="m139.3537 234.88507l0 19.527557" fill-rule="evenodd"></path><path stroke="#000000" stroke-width="1.0" stroke-linejoin="round" stroke-linecap="butt" d="m139.3537 234.88507l0 13.527557" fill-rule="evenodd"></path><path fill="#000000" stroke="#000000" stroke-width="1.0" stroke-linecap="butt" d="m137.70197 248.41263l1.6517334 4.538101l1.6517334 -4.538101z" fill-rule="evenodd"></path><path fill="#eeeeee" d="m179.93182 262.0609l36.850403 0l0 42.393707l-36.850403 0z" fill-rule="evenodd"></path><path stroke="#595959" stroke-width="1.0" stroke-linejoin="round" stroke-linecap="butt" d="m179.93182 262.0609l36.850403 0l0 42.393707l-36.850403 0z" fill-rule="evenodd"></path><path fill="#000000" d="m193.95041 283.47464q0 -2.421875 0.5 -3.890625q0.5 -1.46875 1.46875 -2.265625q0.98439026 -0.796875 2.4687653 -0.796875q1.09375 0 1.921875 0.4375q0.828125 0.4375 1.359375 1.28125q0.546875 0.828125 0.84375 2.015625q0.3125 1.1875 0.3125 3.21875q0 2.390625 -0.5 3.859375q-0.484375 1.46875 -1.46875 2.28125q-0.96875 0.796875 -2.46875 0.796875q-1.96875 0 -3.0781403 -1.40625q-1.359375 -1.703125 -1.359375 -5.53125zm1.71875 0q0 3.34375 0.78126526 4.453125q0.796875 1.109375 1.9375 1.109375q1.15625 0 1.9375 -1.109375q0.78125 -1.125 0.78125 -4.453125q0 -3.359375 -0.78125 -4.46875q-0.78125 -1.109375 -1.953125 -1.109375q-1.15625 0 -1.828125 0.984375q-0.87501526 1.234375 -0.87501526 4.59375z" fill-rule="nonzero"></path><path fill="#eeeeee" d="m217.46083 262.0609l36.850403 0l0 42.393707l-36.850403 0z" fill-rule="evenodd"></path><path stroke="#595959" stroke-width="1.0" stroke-linejoin="round" stroke-linecap="butt" d="m217.46083 262.0609l36.850403 0l0 42.393707l-36.850403 0z" fill-rule="evenodd"></path><path fill="#000000" d="m231.47943 283.47464q0 -2.421875 0.5 -3.890625q0.5 -1.46875 1.46875 -2.265625q0.984375 -0.796875 2.46875 -0.796875q1.09375 0 1.921875 0.4375q0.828125 0.4375 1.359375 1.28125q0.546875 0.828125 0.84375 2.015625q0.3125 1.1875 0.3125 3.21875q0 2.390625 -0.5 3.859375q-0.484375 1.46875 -1.46875 2.28125q-0.96875 0.796875 -2.46875 0.796875q-1.96875 0 -3.078125 -1.40625q-1.359375 -1.703125 -1.359375 -5.53125zm1.71875 0q0 3.34375 0.78125 4.453125q0.796875 1.109375 1.9375 1.109375q1.15625 0 1.9375 -1.109375q0.78125 -1.125 0.78125 -4.453125q0 -3.359375 -0.78125 -4.46875q-0.78125 -1.109375 -1.953125 -1.109375q-1.15625 0 -1.828125 0.984375q-0.875 1.234375 -0.875 4.59375z" fill-rule="nonzero"></path><path fill="#eeeeee" d="m253.77483 262.0609l36.850388 0l0 42.393707l-36.850388 0z" fill-rule="evenodd"></path><path stroke="#595959" stroke-width="1.0" stroke-linejoin="round" stroke-linecap="butt" d="m253.77483 262.0609l36.850388 0l0 42.393707l-36.850388 0z" fill-rule="evenodd"></path><path fill="#000000" d="m274.0903 290.17776l-1.671875 0l0 -10.640625q-0.59375 0.578125 -1.578125 1.15625q-0.984375 0.5625 -1.765625 0.859375l0 -1.625q1.40625 -0.65625 2.453125 -1.59375q1.046875 -0.9375 1.484375 -1.8125l1.078125 0l0 13.65625z" fill-rule="nonzero"></path><path fill="#eeeeee" d="m355.93182 262.0609l36.850403 0l0 42.393707l-36.850403 0z" fill-rule="evenodd"></path><path stroke="#595959" stroke-width="1.0" stroke-linejoin="round" stroke-linecap="butt" d="m355.93182 262.0609l36.850403 0l0 42.393707l-36.850403 0z" fill-rule="evenodd"></path><path fill="#000000" d="m369.9504 283.47464q0 -2.421875 0.5 -3.890625q0.5 -1.46875 1.46875 -2.265625q0.984375 -0.796875 2.46875 -0.796875q1.09375 0 1.921875 0.4375q0.828125 0.4375 1.359375 1.28125q0.546875 0.828125 0.84375 2.015625q0.3125 1.1875 0.3125 3.21875q0 2.390625 -0.5 3.859375q-0.484375 1.46875 -1.46875 2.28125q-0.96875 0.796875 -2.46875 0.796875q-1.96875 0 -3.078125 -1.40625q-1.359375 -1.703125 -1.359375 -5.53125zm1.71875 0q0 3.34375 0.78125 4.453125q0.796875 1.109375 1.9375 1.109375q1.15625 0 1.9375 -1.109375q0.78125 -1.125 0.78125 -4.453125q0 -3.359375 -0.78125 -4.46875q-0.78125 -1.109375 -1.953125 -1.109375q-1.15625 0 -1.828125 0.984375q-0.875 1.234375 -0.875 4.59375z" fill-rule="nonzero"></path><path fill="#eeeeee" d="m393.46085 262.0609l36.850372 0l0 42.393707l-36.850372 0z" fill-rule="evenodd"></path><path stroke="#595959" stroke-width="1.0" stroke-linejoin="round" stroke-linecap="butt" d="m393.46085 262.0609l36.850372 0l0 42.393707l-36.850372 0z" fill-rule="evenodd"></path><path fill="#000000" d="m407.47943 283.47464q0 -2.421875 0.5 -3.890625q0.5 -1.46875 1.46875 -2.265625q0.984375 -0.796875 2.46875 -0.796875q1.09375 0 1.921875 0.4375q0.828125 0.4375 1.359375 1.28125q0.546875 0.828125 0.84375 2.015625q0.3125 1.1875 0.3125 3.21875q0 2.390625 -0.5 3.859375q-0.484375 1.46875 -1.46875 2.28125q-0.96875 0.796875 -2.46875 0.796875q-1.96875 0 -3.078125 -1.40625q-1.359375 -1.703125 -1.359375 -5.53125zm1.71875 0q0 3.34375 0.78125 4.453125q0.796875 1.109375 1.9375 1.109375q1.15625 0 1.9375 -1.109375q0.78125 -1.125 0.78125 -4.453125q0 -3.359375 -0.78125 -4.46875q-0.78125 -1.109375 -1.953125 -1.109375q-1.15625 0 -1.828125 0.984375q-0.875 1.234375 -0.875 4.59375z" fill-rule="nonzero"></path><path fill="#eeeeee" d="m429.77484 262.0609l36.850372 0l0 42.393707l-36.850372 0z" fill-rule="evenodd"></path><path stroke="#595959" stroke-width="1.0" stroke-linejoin="round" stroke-linecap="butt" d="m429.77484 262.0609l36.850372 0l0 42.393707l-36.850372 0z" fill-rule="evenodd"></path><path fill="#000000" d="m444.05905 287.03714l1.59375 -0.15625q0.203125 1.140625 0.78125 1.65625q0.578125 0.5 1.484375 0.5q0.765625 0 1.34375 -0.34375q0.578125 -0.359375 0.953125 -0.953125q0.375 -0.59375 0.625 -1.59375q0.25 -1.0 0.25 -2.03125q0 -0.109375 -0.015625 -0.34375q-0.5 0.796875 -1.375 1.296875q-0.859375 0.5 -1.875 0.5q-1.6875 0 -2.859375 -1.21875q-1.171875 -1.234375 -1.171875 -3.234375q0 -2.078125 1.21875 -3.328125q1.234375 -1.265625 3.0625 -1.265625q1.328125 0 2.421875 0.71875q1.109375 0.703125 1.671875 2.03125q0.578125 1.328125 0.578125 3.828125q0 2.609375 -0.578125 4.15625q-0.5625 1.546875 -1.6875 2.359375q-1.109375 0.796875 -2.609375 0.796875q-1.59375 0 -2.609375 -0.890625q-1.0 -0.890625 -1.203125 -2.484375zm6.828125 -6.0q0 -1.4375 -0.765625 -2.28125q-0.765625 -0.859375 -1.84375 -0.859375q-1.109375 0 -1.9375 0.921875q-0.828125 0.90625 -0.828125 2.34375q0 1.3125 0.78125 2.125q0.796875 0.796875 1.9375 0.796875q1.171875 0 1.90625 -0.796875q0.75 -0.8125 0.75 -2.25z" fill-rule="nonzero"></path><path fill="#000000" fill-opacity="0.0" d="m459.3537 234.88507l0 19.527557" fill-rule="evenodd"></path><path stroke="#000000" stroke-width="1.0" stroke-linejoin="round" stroke-linecap="butt" d="m459.35373 234.88507l0 13.527557" fill-rule="evenodd"></path><path fill="#000000" stroke="#000000" stroke-width="1.0" stroke-linecap="butt" d="m457.702 248.41263l1.6517334 4.538101l1.6517334 -4.538101z" fill-rule="evenodd"></path><path fill="#eeeeee" d="m499.93182 262.0609l36.850403 0l0 42.393707l-36.850403 0z" fill-rule="evenodd"></path><path stroke="#595959" stroke-width="1.0" stroke-linejoin="round" stroke-linecap="butt" d="m499.93182 262.0609l36.850403 0l0 42.393707l-36.850403 0z" fill-rule="evenodd"></path><path fill="#000000" d="m513.95044 283.47464q0 -2.421875 0.5 -3.890625q0.5 -1.46875 1.46875 -2.265625q0.984375 -0.796875 2.46875 -0.796875q1.09375 0 1.921875 0.4375q0.828125 0.4375 1.359375 1.28125q0.546875 0.828125 0.84375 2.015625q0.3125 1.1875 0.3125 3.21875q0 2.390625 -0.5 3.859375q-0.484375 1.46875 -1.46875 2.28125q-0.96875 0.796875 -2.46875 0.796875q-1.96875 0 -3.078125 -1.40625q-1.359375 -1.703125 -1.359375 -5.53125zm1.71875 0q0 3.34375 0.78125 4.453125q0.796875 1.109375 1.9375 1.109375q1.15625 0 1.9375 -1.109375q0.78125 -1.125 0.78125 -4.453125q0 -3.359375 -0.78125 -4.46875q-0.78125 -1.109375 -1.953125 -1.109375q-1.15625 0 -1.828125 0.984375q-0.875 1.234375 -0.875 4.59375z" fill-rule="nonzero"></path><path fill="#eeeeee" d="m537.4608 262.0609l36.850403 0l0 42.393707l-36.850403 0z" fill-rule="evenodd"></path><path stroke="#595959" stroke-width="1.0" stroke-linejoin="round" stroke-linecap="butt" d="m537.4608 262.0609l36.850403 0l0 42.393707l-36.850403 0z" fill-rule="evenodd"></path><path fill="#000000" d="m557.7763 290.17776l-1.671875 0l0 -10.640625q-0.59375 0.578125 -1.578125 1.15625q-0.984375 0.5625 -1.765625 0.859375l0 -1.625q1.40625 -0.65625 2.453125 -1.59375q1.046875 -0.9375 1.484375 -1.8125l1.078125 0l0 13.65625z" fill-rule="nonzero"></path><path fill="#eeeeee" d="m573.77484 262.0609l36.850403 0l0 42.393707l-36.850403 0z" fill-rule="evenodd"></path><path stroke="#595959" stroke-width="1.0" stroke-linejoin="round" stroke-linecap="butt" d="m573.77484 262.0609l36.850403 0l0 42.393707l-36.850403 0z" fill-rule="evenodd"></path><path fill="#000000" d="m587.7934 283.47464q0 -2.421875 0.5 -3.890625q0.5 -1.46875 1.46875 -2.265625q0.984375 -0.796875 2.46875 -0.796875q1.09375 0 1.921875 0.4375q0.828125 0.4375 1.359375 1.28125q0.546875 0.828125 0.84375 2.015625q0.3125 1.1875 0.3125 3.21875q0 2.390625 -0.5 3.859375q-0.484375 1.46875 -1.46875 2.28125q-0.96875 0.796875 -2.46875 0.796875q-1.96875 0 -3.078125 -1.40625q-1.359375 -1.703125 -1.359375 -5.53125zm1.71875 0q0 3.34375 0.78125 4.453125q0.796875 1.109375 1.9375 1.109375q1.15625 0 1.9375 -1.109375q0.78125 -1.125 0.78125 -4.453125q0 -3.359375 -0.78125 -4.46875q-0.78125 -1.109375 -1.953125 -1.109375q-1.15625 0 -1.828125 0.984375q-0.875 1.234375 -0.875 4.59375z" fill-rule="nonzero"></path><path fill="#000000" fill-opacity="0.0" d="m448.20004 262.0609l0 -24.999985l-36.314972 0l0 25.062973" fill-rule="evenodd"></path><path stroke="#000000" stroke-width="1.0" stroke-linejoin="round" stroke-linecap="butt" stroke-dasharray="1.0,3.0" d="m448.2 262.0609l0 -24.999985l-36.314972 0l0 19.062973" fill-rule="evenodd"></path><path fill="#000000" stroke="#000000" stroke-width="1.0" stroke-linecap="butt" d="m410.2333 256.1239l1.6517334 4.5381165l1.6517334 -4.5381165z" fill-rule="evenodd"></path><path fill="#eeeeee" d="m669.37476 262.72122l36.850403 0l0 42.393707l-36.850403 0z" fill-rule="evenodd"></path><path stroke="#595959" stroke-width="1.0" stroke-linejoin="round" stroke-linecap="butt" d="m669.37476 262.72122l36.850403 0l0 42.393707l-36.850403 0z" fill-rule="evenodd"></path><path fill="#000000" d="m683.3934 284.13495q0 -2.421875 0.5 -3.890625q0.5 -1.46875 1.46875 -2.265625q0.984375 -0.796875 2.46875 -0.796875q1.09375 0 1.921875 0.4375q0.828125 0.4375 1.359375 1.28125q0.546875 0.828125 0.84375 2.015625q0.3125 1.1875 0.3125 3.21875q0 2.390625 -0.5 3.859375q-0.484375 1.46875 -1.46875 2.28125q-0.96875 0.796875 -2.46875 0.796875q-1.96875 0 -3.078125 -1.40625q-1.359375 -1.703125 -1.359375 -5.53125zm1.71875 0q0 3.34375 0.78125 4.453125q0.796875 1.109375 1.9375 1.109375q1.15625 0 1.9375 -1.109375q0.78125 -1.125 0.78125 -4.453125q0 -3.359375 -0.78125 -4.46875q-0.78125 -1.109375 -1.953125 -1.109375q-1.15625 0 -1.828125 0.984375q-0.875 1.234375 -0.875 4.59375z" fill-rule="nonzero"></path><path fill="#eeeeee" d="m706.9038 262.72122l36.85034 0l0 42.393707l-36.85034 0z" fill-rule="evenodd"></path><path stroke="#595959" stroke-width="1.0" stroke-linejoin="round" stroke-linecap="butt" d="m706.9038 262.72122l36.85034 0l0 42.393707l-36.85034 0z" fill-rule="evenodd"></path><path fill="#000000" d="m721.188 287.69745l1.59375 -0.15625q0.203125 1.140625 0.78125 1.65625q0.578125 0.5 1.484375 0.5q0.765625 0 1.34375 -0.34375q0.578125 -0.359375 0.953125 -0.953125q0.375 -0.59375 0.625 -1.59375q0.25 -1.0 0.25 -2.03125q0 -0.109375 -0.015625 -0.34375q-0.5 0.796875 -1.375 1.296875q-0.859375 0.5 -1.875 0.5q-1.6875 0 -2.859375 -1.21875q-1.171875 -1.234375 -1.171875 -3.234375q0 -2.078125 1.21875 -3.328125q1.234375 -1.265625 3.0625 -1.265625q1.328125 0 2.421875 0.71875q1.109375 0.703125 1.671875 2.03125q0.578125 1.328125 0.578125 3.828125q0 2.609375 -0.578125 4.15625q-0.5625 1.546875 -1.6875 2.359375q-1.109375 0.796875 -2.609375 0.796875q-1.59375 0 -2.609375 -0.890625q-1.0 -0.890625 -1.203125 -2.484375zm6.828125 -6.0q0 -1.4375 -0.765625 -2.28125q-0.765625 -0.859375 -1.84375 -0.859375q-1.109375 0 -1.9375 0.921875q-0.828125 0.90625 -0.828125 2.34375q0 1.3125 0.78125 2.125q0.796875 0.796875 1.9375 0.796875q1.171875 0 1.90625 -0.796875q0.75 -0.8125 0.75 -2.25z" fill-rule="nonzero"></path><path fill="#eeeeee" d="m743.2178 262.72122l36.850403 0l0 42.393707l-36.850403 0z" fill-rule="evenodd"></path><path stroke="#595959" stroke-width="1.0" stroke-linejoin="round" stroke-linecap="butt" d="m743.2178 262.72122l36.850403 0l0 42.393707l-36.850403 0z" fill-rule="evenodd"></path><path fill="#000000" d="m757.502 287.69745l1.59375 -0.15625q0.203125 1.140625 0.78125 1.65625q0.578125 0.5 1.484375 0.5q0.765625 0 1.34375 -0.34375q0.578125 -0.359375 0.953125 -0.953125q0.375 -0.59375 0.625 -1.59375q0.25 -1.0 0.25 -2.03125q0 -0.109375 -0.015625 -0.34375q-0.5 0.796875 -1.375 1.296875q-0.859375 0.5 -1.875 0.5q-1.6875 0 -2.859375 -1.21875q-1.171875 -1.234375 -1.171875 -3.234375q0 -2.078125 1.21875 -3.328125q1.234375 -1.265625 3.0625 -1.265625q1.328125 0 2.421875 0.71875q1.109375 0.703125 1.671875 2.03125q0.578125 1.328125 0.578125 3.828125q0 2.609375 -0.578125 4.15625q-0.5625 1.546875 -1.6875 2.359375q-1.109375 0.796875 -2.609375 0.796875q-1.59375 0 -2.609375 -0.890625q-1.0 -0.890625 -1.203125 -2.484375zm6.828125 -6.0q0 -1.4375 -0.765625 -2.28125q-0.765625 -0.859375 -1.84375 -0.859375q-1.109375 0 -1.9375 0.921875q-0.828125 0.90625 -0.828125 2.34375q0 1.3125 0.78125 2.125q0.796875 0.796875 1.9375 0.796875q1.171875 0 1.90625 -0.796875q0.75 -0.8125 0.75 -2.25z" fill-rule="nonzero"></path><path fill="#000000" fill-opacity="0.0" d="m772.79663 235.54538l0 19.527557" fill-rule="evenodd"></path><path stroke="#000000" stroke-width="1.0" stroke-linejoin="round" stroke-linecap="butt" d="m772.7967 235.54538l0 13.527557" fill-rule="evenodd"></path><path fill="#000000" stroke="#000000" stroke-width="1.0" stroke-linecap="butt" d="m771.14496 249.07294l1.6517334 4.538101l1.6517334 -4.538101z" fill-rule="evenodd"></path><path fill="#eeeeee" d="m813.37476 262.72122l36.850403 0l0 42.393707l-36.850403 0z" fill-rule="evenodd"></path><path stroke="#595959" stroke-width="1.0" stroke-linejoin="round" stroke-linecap="butt" d="m813.37476 262.72122l36.850403 0l0 42.393707l-36.850403 0z" fill-rule="evenodd"></path><path fill="#000000" d="m833.69025 290.83807l-1.671875 0l0 -10.640625q-0.59375 0.578125 -1.578125 1.15625q-0.984375 0.5625 -1.765625 0.859375l0 -1.625q1.40625 -0.65625 2.453125 -1.59375q1.046875 -0.9375 1.484375 -1.8125l1.078125 0l0 13.65625z" fill-rule="nonzero"></path><path fill="#eeeeee" d="m850.9038 262.72122l36.85034 0l0 42.393707l-36.85034 0z" fill-rule="evenodd"></path><path stroke="#595959" stroke-width="1.0" stroke-linejoin="round" stroke-linecap="butt" d="m850.9038 262.72122l36.85034 0l0 42.393707l-36.85034 0z" fill-rule="evenodd"></path><path fill="#000000" d="m864.92236 284.13495q0 -2.421875 0.5 -3.890625q0.5 -1.46875 1.46875 -2.265625q0.984375 -0.796875 2.46875 -0.796875q1.09375 0 1.921875 0.4375q0.828125 0.4375 1.359375 1.28125q0.546875 0.828125 0.84375 2.015625q0.3125 1.1875 0.3125 3.21875q0 2.390625 -0.5 3.859375q-0.484375 1.46875 -1.46875 2.28125q-0.96875 0.796875 -2.46875 0.796875q-1.96875 0 -3.078125 -1.40625q-1.359375 -1.703125 -1.359375 -5.53125zm1.71875 0q0 3.34375 0.78125 4.453125q0.796875 1.109375 1.9375 1.109375q1.15625 0 1.9375 -1.109375q0.78125 -1.125 0.78125 -4.453125q0 -3.359375 -0.78125 -4.46875q-0.78125 -1.109375 -1.953125 -1.109375q-1.15625 0 -1.828125 0.984375q-0.875 1.234375 -0.875 4.59375z" fill-rule="nonzero"></path><path fill="#eeeeee" d="m887.2178 262.72122l36.850403 0l0 42.393707l-36.850403 0z" fill-rule="evenodd"></path><path stroke="#595959" stroke-width="1.0" stroke-linejoin="round" stroke-linecap="butt" d="m887.2178 262.72122l36.850403 0l0 42.393707l-36.850403 0z" fill-rule="evenodd"></path><path fill="#000000" d="m901.2364 284.13495q0 -2.421875 0.5 -3.890625q0.5 -1.46875 1.46875 -2.265625q0.984375 -0.796875 2.46875 -0.796875q1.09375 0 1.921875 0.4375q0.828125 0.4375 1.359375 1.28125q0.546875 0.828125 0.84375 2.015625q0.3125 1.1875 0.3125 3.21875q0 2.390625 -0.5 3.859375q-0.484375 1.46875 -1.46875 2.28125q-0.96875 0.796875 -2.46875 0.796875q-1.96875 0 -3.078125 -1.40625q-1.359375 -1.703125 -1.359375 -5.53125zm1.71875 0q0 3.34375 0.78125 4.453125q0.796875 1.109375 1.9375 1.109375q1.15625 0 1.9375 -1.109375q0.78125 -1.125 0.78125 -4.453125q0 -3.359375 -0.78125 -4.46875q-0.78125 -1.109375 -1.953125 -1.109375q-1.15625 0 -1.828125 0.984375q-0.875 1.234375 -0.875 4.59375z" fill-rule="nonzero"></path><path fill="#000000" fill-opacity="0.0" d="m761.643 262.72122l0 -25.0l-36.315002 0l0 25.062988" fill-rule="evenodd"></path><path stroke="#000000" stroke-width="1.0" stroke-linejoin="round" stroke-linecap="butt" stroke-dasharray="1.0,3.0" d="m761.64294 262.72122l0 -24.999985l-36.31494 0l0 19.062973" fill-rule="evenodd"></path><path fill="#000000" stroke="#000000" stroke-width="1.0" stroke-linecap="butt" d="m723.6763 256.7842l1.6517334 4.5381165l1.6517334 -4.5381165z" fill-rule="evenodd"></path><path fill="#000000" fill-opacity="0.0" d="m725.329 262.72122l0 -25.0l-37.543274 0l0 25.062988" fill-rule="evenodd"></path><path stroke="#000000" stroke-width="1.0" stroke-linejoin="round" stroke-linecap="butt" stroke-dasharray="1.0,3.0" d="m725.329 262.72122l0 -24.999985l-37.543274 0l0 19.062973" fill-rule="evenodd"></path><path fill="#000000" stroke="#000000" stroke-width="1.0" stroke-linecap="butt" d="m686.134 256.7842l1.6517334 4.5381165l1.6517334 -4.5381165z" fill-rule="evenodd"></path><path fill="#eeeeee" d="m783.5979 277.65036l14.929077 0l0 -6.2677l12.535461 12.535431l-12.535461 12.535431l0 -6.2677307l-14.929077 0z" fill-rule="evenodd"></path><path stroke="#595959" stroke-width="1.0" stroke-linejoin="round" stroke-linecap="butt" d="m783.5979 277.65036l14.929077 0l0 -6.2677l12.535461 12.535431l-12.535461 12.535431l0 -6.2677307l-14.929077 0z" fill-rule="evenodd"></path><path fill="#eeeeee" d="m469.78635 276.99005l14.929138 0l0 -6.2677l12.535431 12.535431l-12.535431 12.535431l0 -6.2677307l-14.929138 0z" fill-rule="evenodd"></path><path stroke="#595959" stroke-width="1.0" stroke-linejoin="round" stroke-linecap="butt" d="m469.78635 276.99005l14.929138 0l0 -6.2677l12.535431 12.535431l-12.535431 12.535431l0 -6.2677307l-14.929138 0z" fill-rule="evenodd"></path><path fill="#eeeeee" d="m149.546 276.99005l14.929123 0l0 -6.2677l12.535446 12.535431l-12.535446 12.535431l0 -6.2677307l-14.929123 0z" fill-rule="evenodd"></path><path stroke="#595959" stroke-width="1.0" stroke-linejoin="round" stroke-linecap="butt" d="m149.546 276.99005l14.929123 0l0 -6.2677l12.535446 12.535431l-12.535446 12.535431l0 -6.2677307l-14.929123 0z" fill-rule="evenodd"></path></g></svg>

