<?xml version="1.0" encoding="UTF-8" standalone="no"?>
<!DOCTYPE svg PUBLIC "-//W3C//DTD SVG 1.1//EN"
 "http://www.w3.org/Graphics/SVG/1.1/DTD/svg11.dtd">
<!-- Generated by graphviz version 2.38.0 (20140413.2041)
 -->
<!-- Title: Graphing Pages: 1 -->
<svg width="320pt" height="171pt"
 viewBox="0.00 0.00 319.60 171.00" xmlns="http://www.w3.org/2000/svg" xmlns:xlink="http://www.w3.org/1999/xlink">
<g id="graph0" class="graph" transform="scale(1 1) rotate(0) translate(4 167)">
<title>Graphing</title>
<polygon fill="white" stroke="none" points="-4,4 -4,-167 315.6,-167 315.6,4 -4,4"/>
<!-- xc4200e9160 -->
<g id="node1" class="node"><title>xc4200e9160</title>
<ellipse fill="none" stroke="black" cx="280.6" cy="-141" rx="27" ry="18"/>
<ellipse fill="none" stroke="black" cx="280.6" cy="-141" rx="31" ry="22"/>
<text text-anchor="middle" x="280.6" y="-137.3" font-family="Times,serif" font-size="14.00">d</text>
</g>
<!-- START -->
<g id="node2" class="node"><title>START</title>
<ellipse fill="black" stroke="black" cx="1.8" cy="-18" rx="1.8" ry="1.8"/>
</g>
<!-- xc4200e9060 -->
<g id="node5" class="node"><title>xc4200e9060</title>
<ellipse fill="none" stroke="black" cx="67.6" cy="-18" rx="27" ry="18"/>
<text text-anchor="middle" x="67.6" y="-14.3" font-family="Times,serif" font-size="14.00">a</text>
</g>
<!-- START&#45;&gt;xc4200e9060 -->
<g id="edge1" class="edge"><title>START&#45;&gt;xc4200e9060</title>
<path fill="none" stroke="black" d="M3.90737,-18C7.37186,-18 18.4868,-18 30.4158,-18"/>
<polygon fill="black" stroke="black" points="30.4776,-21.5001 40.4775,-18 30.4775,-14.5001 30.4776,-21.5001"/>
</g>
<!-- xc4200e9310 -->
<g id="node3" class="node"><title>xc4200e9310</title>
<ellipse fill="black" stroke="black" cx="185.6" cy="-51" rx="1.8" ry="1.8"/>
</g>
<!-- xc4200e90c0 -->
<g id="node6" class="node"><title>xc4200e90c0</title>
<ellipse fill="none" stroke="black" cx="280.6" cy="-73" rx="27" ry="18"/>
<text text-anchor="middle" x="280.6" y="-69.3" font-family="Times,serif" font-size="14.00">b</text>
</g>
<!-- xc4200e9310&#45;&gt;xc4200e90c0 -->
<g id="edge2" class="edge"><title>xc4200e9310&#45;&gt;xc4200e90c0</title>
<path fill="none" stroke="black" d="M187.644,-51.2471C193.372,-52.6019 221.572,-59.2729 245.251,-64.8744"/>
<polygon fill="black" stroke="black" points="244.507,-68.2948 255.044,-67.191 246.118,-61.4829 244.507,-68.2948"/>
</g>
<!-- xc4200e9320 -->
<g id="node4" class="node"><title>xc4200e9320</title>
<ellipse fill="black" stroke="black" cx="67.6" cy="-98" rx="1.8" ry="1.8"/>
</g>
<!-- xc4200e9320&#45;&gt;xc4200e9160 -->
<g id="edge8" class="edge"><title>xc4200e9320&#45;&gt;xc4200e9160</title>
<path fill="none" stroke="black" d="M69.3947,-98.7634C75.5647,-104.628 116.69,-142.609 158.6,-154 185.895,-161.419 217.732,-157.523 241.897,-152.118"/>
<polygon fill="black" stroke="black" points="242.85,-155.488 251.748,-149.737 241.206,-148.684 242.85,-155.488"/>
</g>
<!-- xc4200e9320&#45;&gt;xc4200e9310 -->
<g id="edge4" class="edge"><title>xc4200e9320&#45;&gt;xc4200e9310</title>
<path fill="none" stroke="black" d="M69.4268,-96.4868C73.2386,-89.6899 89.9042,-61.8846 112.6,-52 132.543,-43.3144 158.638,-45.9738 173.309,-48.5686"/>
<polygon fill="black" stroke="black" points="173.015,-52.0833 183.521,-50.7194 174.457,-45.2336 173.015,-52.0833"/>
<text text-anchor="middle" x="126.6" y="-55.8" font-family="Times,serif" font-size="14.00">2&#45;4x</text>
</g>
<!-- xc4200e9120 -->
<g id="node7" class="node"><title>xc4200e9120</title>
<ellipse fill="none" stroke="black" cx="185.6" cy="-127" rx="27" ry="18"/>
<text text-anchor="middle" x="185.6" y="-123.3" font-family="Times,serif" font-size="14.00">c</text>
</g>
<!-- xc4200e9320&#45;&gt;xc4200e9120 -->
<g id="edge6" class="edge"><title>xc4200e9320&#45;&gt;xc4200e9120</title>
<path fill="none" stroke="black" stroke-dasharray="1,5" d="M69.9027,-98.3257C77.7298,-100.282 119.206,-110.652 150.047,-118.362"/>
<polygon fill="black" stroke="black" points="149.485,-121.829 160.035,-120.859 151.182,-115.038 149.485,-121.829"/>
</g>
<!-- xc4200e9060&#45;&gt;xc4200e9310 -->
<g id="edge5" class="edge"><title>xc4200e9060&#45;&gt;xc4200e9310</title>
<path fill="none" stroke="black" d="M94.2544,-21.608C108.15,-23.9056 125.514,-27.3361 140.6,-32 152.564,-35.6988 165.668,-41.6153 174.437,-45.8636"/>
<polygon fill="black" stroke="black" points="173.037,-49.0775 183.544,-50.4416 176.181,-42.8232 173.037,-49.0775"/>
</g>
<!-- xc4200e90c0&#45;&gt;xc4200e9320 -->
<g id="edge3" class="edge"><title>xc4200e90c0&#45;&gt;xc4200e9320</title>
<path fill="none" stroke="black" d="M253.951,-76.0389C207.628,-81.5274 111.821,-92.879 79.5115,-96.7072"/>
<polygon fill="black" stroke="black" points="79.0594,-93.2362 69.5407,-97.8885 79.8831,-100.188 79.0594,-93.2362"/>
</g>
<!-- xc4200e9120&#45;&gt;xc4200e9160 -->
<g id="edge7" class="edge"><title>xc4200e9120&#45;&gt;xc4200e9160</title>
<path fill="none" stroke="black" stroke-dasharray="1,5" d="M212.013,-130.826C220.623,-132.122 230.456,-133.602 239.906,-135.025"/>
<polygon fill="black" stroke="black" points="239.525,-138.507 249.935,-136.534 240.567,-131.585 239.525,-138.507"/>
</g>
</g>
</svg>
